<?xml version="1.0" encoding="UTF-8"?>
<svg width="48" height="48" version="1.1" viewBox="0 0 12.7 12.7" xmlns="http://www.w3.org/2000/svg">
<path d="m8.9548 0.63006c-0.10658 0.10848-0.22792 0.23306-0.36596 0.3753l-8.1345 8.2424 0.00172 0.0016c-0.028512 0.035387-0.048479 0.075333-0.053311 0.11433l-0.3539 2.8595c-0.07772 0.14985-0.061599 0.30951 0.041078 0.40239 0.088922 0.08021 0.22805 0.09697 0.36469 0.0437l0.001112-3.1e-5 3.0007-0.50981c0.048855-0.0083 0.097776-0.03738 0.13736-0.07672l5.724e-4 5.17e-4 8.1334-8.2435c1.118-1.1509 1.1119-1.1454 0.77139-1.4528l-2.4387-2.2022c-0.31487-0.28432-0.35957-0.31407-1.1056 0.44524zm0.18295 0.21694c0.22101-0.24153 0.48315-0.24128 0.66957-0.072948l2.0949 1.8916c0.35324 0.31897-0.17128 1.1707-0.69296 0.69964l-2.0949-1.8916c-0.21554-0.19463-0.14851-0.43884 0.023383-0.6267zm-8.102 8.6578 7.5951-7.6957 0.86438 0.78052-7.1658 7.2452c-0.080843 0.081915 0.025604 0.33674 0.066933 0.374l0.08638 0.078c0.039633 0.03574 0.29963 0.16663 0.37716 0.08807l7.1798-7.277c0.35609 0.31517 0.45648 0.39833 0.81067 0.71545l-7.6145 7.7175-1.8655 0.41202c-0.057058-0.16269-0.10702-0.177-0.27726-0.33102-0.16568-0.1495-0.19778-0.20127-0.36763-0.24896z" fill="#fff" stroke-width="185.08" style="paint-order:fill markers stroke"/>
</svg>
