<?xml version="1.0" encoding="UTF-8"?>
<svg width="48" height="48" version="1.1" viewBox="0 0 12.7 12.7" xmlns="http://www.w3.org/2000/svg" xmlns:xlink="http://www.w3.org/1999/xlink">
<defs>
<linearGradient id="a" x1=".85" x2="11.85" y1="6.35" y2="6.35" gradientTransform="translate(-.0094912 .0094769)" gradientUnits="userSpaceOnUse">
<stop stop-color="#0072ff" offset="0"/>
<stop stop-color="#0064ff" stop-opacity=".34307" offset="1"/>
<stop stop-color="#00f" stop-opacity="0" offset="1"/>
</linearGradient>
</defs>
<rect transform="matrix(-.0014936 1 1 .0014936 0 0)" x=".84051" y=".85948" width="11" height="11" rx="1.3084" ry="1.3085" fill="url(#a)" stroke-width="167.13" style="paint-order:fill markers stroke"/>
<circle cx="2.7671" cy="4.0482" r=".75" fill="#fff" stroke-width="182.42" style="paint-order:fill markers stroke"/>
<circle cx="9.8366" cy="4.0482" r=".75" fill="#fff" stroke-width="182.42" style="paint-order:fill markers stroke"/>
<path d="m10.207 6.1795a0.23593 0.27834 33.128 0 0-0.20877 0.10749 0.23593 0.27834 33.128 0 0-0.0010336 0.0010335c-0.18268 0.22624-0.53434 0.39377-1.1002 0.49868-0.67449 0.12499-1.5053 0.12479-2.1792-5.168e-4 -0.54071-0.10051-0.90823-0.29322-1.0764-0.48524a0.27664 0.23522 55.612 0 0-0.21342-0.11317 0.27664 0.23522 55.612 0 0-0.1974 0.12764 0.27664 0.23522 55.612 0 0 0.032556 0.26355v5.168e-4h5.167e-4c0.21945 0.26335 0.57541 0.4958 1.1534 0.64027 0.85976 0.21474 1.9195 0.21494 2.7797 5.167e-4 0.5977-0.14895 0.95777-0.37061 1.1762-0.64647l-5.16e-4 -5.168e-4a0.23593 0.27834 33.128 0 0 0.032039-0.2651 0.23593 0.27834 33.128 0 0-0.1974-0.12867z" fill="#fff" stroke-width="202.23" style="paint-order:fill markers stroke"/>
</svg>