<?xml version="1.0" encoding="UTF-8"?>
<svg width="48" height="48" version="1.1" viewBox="0 0 12.7 12.7" xmlns="http://www.w3.org/2000/svg">
<defs>
<clipPath id="b">
<path d="m0.053227 0.47026v12.23h8.8486v-12.23zm4.5935 2.2831c0.020672 0 0.041341 0.020569 0.041341 0.061495v0.060463c0.014423 0.00433 0.029342 0.017211 0.040308 0.040307 0.00955 0.020119 0.013443 0.042071 0.018603 0.063562 0.00636 0.024146 0.00965 0.049076 0.011885 0.073897 0.00241 0.023421 0.00161 0.046852 0.00362 0.07028 0.00233 0.019156 0.00425 0.038631 0.00568 0.057878 0.00114 0.015743 0.00175 0.031247 0.00206 0.047025 2.646e-4 0.015314 4.763e-4 0.030675 5.292e-4 0.045992 3.99e-5 0.016764-9.3e-6 0.033363 0 0.050126 6.9e-6 0.013245-1.1e-6 0.026546 0 0.039791v0.042375c0 0.0091-0.0018 0.016192-0.00362 0.023254 0.01837-0.00417 0.020095-0.00503 0.020153 0.0093 9.8e-6 0.00238 8e-7 0.00499 0 0.00827v5.292e-4c1.6e-6 0.00997 0 0.019487 0 0.029456-2.6e-6 3.44e-4 2.7e-6 6.879e-4 0 0.00103v0.29766c7.938e-4 0.00164 0.00161 0.00347 0.00206 0.00569 0.00103 0.0051 0.00132 0.010324 0.00156 0.015502 2.911e-4 0.00724 4.498e-4 0.014454 5.292e-4 0.021704 4.97e-5 0.00542-1.51e-5 0.010589 0 0.01602 1.51e-5 0.00422 2.91e-4 0.0087 0 0.01292-5.821e-4 0.00451-0.00135 0.00895-0.00206 0.013436-8.731e-4 4e-3 -0.00122 0.00832-0.00156 0.012401-1e-4 0.00464-3.704e-4 0.00886-0.00103 0.013435-6.614e-4 0.00448-8.466e-4 0.00892-0.00103 0.013436 1.93e-5 0.00435-9.79e-4 0.00863-0.00156 0.01292l-5.292e-4 0.00156c-7.937e-4 0.00651-0.00362 0.010001-0.00672 0.011885v0.071831c0 0.00742-0.00274 0.01243-0.0062 0.01447v0.18448c4.498e-4 0.013698-0.00335 0.026841-0.00517 0.040308-0.0014 0.013031-0.00579 0.025305-0.00775 0.03824-0.0018 0.013666-0.00588 0.027255-0.00827 0.040824-0.0014 0.013232-0.00367 0.025805-0.00672 0.038758-0.00334 0.015557-0.0088 0.030513-0.012401 0.045992-0.00411 0.018584-0.00899 0.037078-0.012401 0.05581-0.00278 0.015375-0.00707 0.030828-0.010853 0.045992-0.00361 0.015653-0.00759 0.031038-0.011885 0.046509-0.00217 0.00924-0.00487 0.018201-0.00723 0.027388v0.06098c6.615e-4 0.013864-0.00281 0.027297-0.00517 0.040824-0.00214 0.013679-0.00689 0.023746-0.014986 0.030489-0.00172 0.01292-0.00251 0.025935-0.00465 0.038758-0.00254 0.019312-0.00788 0.038338-0.011885 0.057361-0.00337 0.01782-0.00846 0.034926-0.013952 0.052193-0.00744 0.02173-0.014557 0.043649-0.022738 0.065112-0.00977 0.022775-0.017092 0.046428-0.025321 0.069763-0.00852 0.024889-0.019976 0.048811-0.027905 0.073897-0.00659 0.022992-0.013528 0.046074-0.021188 0.068729-0.0087 0.023527-0.015357 0.047445-0.021188 0.07183-0.00418 0.023895-0.013446 0.046572-0.020153 0.069763-0.00716 0.028543-0.018158 0.055835-0.027388 0.083716-0.00643 0.020468-0.010374 0.041608-0.017052 0.062012-0.00576 0.016007-0.0099 0.032179-0.01447 0.048576-0.00353 0.01483-0.00717 0.029582-0.012401 0.043925-0.00733 0.019095-0.016301 0.03782-0.02377 0.056844-0.0065 0.018788-0.013975 0.03719-0.023254 0.054777-0.00783 0.013676-0.014867 0.02742-0.021188 0.041858-0.00471 0.013359-0.00897 0.026889-0.014986 0.039791-0.00602 0.011536-0.012203 0.022767-0.018603 0.034106-0.00336 0.00449-0.00497 0.00944-0.0062 0.01447-0.00143 0.00587-0.00311 0.01124-0.00517 0.01602-0.00304 0.011203-0.00619 0.022371-0.0093 0.03359-0.00521 0.019476-0.00958 0.039095-0.015502 0.058394-0.00569 0.018449-0.010435 0.037477-0.016536 0.05581-0.00624 0.017407-0.010798 0.035492-0.01602 0.053227-0.00588 0.017761-0.00898 0.036023-0.01292 0.05426-0.00611 0.023781-0.00969 0.048003-0.015502 0.07183-0.00297 0.00878-5e-3 0.017854-0.00723 0.026872 0.00283 0.010208 0.00574 0.020468 0.0093 0.030489 0.00632 0.017703 0.012811 0.035626 0.020672 0.05271 0.00382 0.00946 0.00905 0.017455 0.01602 0.024805 0.0089 0.00897 0.019696 0.015994 0.029972 0.023254 0.00889 0.00821 0.018492 0.010729 0.029456 0.01447 0.010692 0.00417 0.022273 0.00652 0.03359 0.00827 0.011351 0.00103 0.022024 0.00532 0.033073 0.00775 0.00771 0.0018 0.015375 0.00183 0.023254 0.00206 0.018984 4.762e-4 0.037854 9.26e-4 0.056844 0.00103 0.020008 9.16e-5 0.040452-1.5e-5 0.060461 0 0.014991 5.028e-4 0.029637-0.00217 0.044442-0.00414 0.00533-1.799e-4 0.00847-0.00267 0.013951-0.00465 0.077-0.027759 0.10542 0.050274 0.028422 0.078031-0.010208 0.00368-0.020569 0.00751-0.031523 0.00827-0.018436 0.00246-0.037136 0.00581-0.05581 0.00517-0.02014-1.51e-5 -0.039805 9.26e-5 -0.059945 0-0.019751-1.082e-4 -0.039682-5.291e-4 -0.059428-0.00103-0.013274-4.762e-4 -0.026827-0.00101-0.039791-0.00414-0.00914-0.0022-0.01809-0.00545-0.027388-0.00672-0.015968-0.00262-0.031344-0.00613-0.046509-0.011885-0.017997-0.00621-0.035788-0.012898-0.050643-0.025321-0.015052-0.010639-0.030845-0.020444-0.043408-0.034106-0.00641-0.00706-0.011856-0.014753-0.017052-0.022738-0.00578 0.017338-0.013422 0.034226-0.020153 0.05116-9.525e-4 0.00249-0.00201 0.00483-0.0031 0.00723 0.00595 0.00594 0.010742 0.013113 0.016536 0.019121 0.00423 0.00358 0.00861 0.00751 0.013436 0.010335 0.00273 0.00177 0.0056 0.00262 0.00878 0.0031 6.615e-4 9.97e-5 0.0014-9.92e-5 0.00206 0 0.057231 0.0086 0.04779 0.067178-0.0093 0.057878l-0.00362-5.292e-4c-0.010343-0.00212-0.020526-0.00557-0.029456-0.011369-0.00919-6e-3 -0.018275-0.012155-0.025839-0.020153-0.00222-0.00257-0.00455-0.00509-0.00672-0.00775-0.050956 0.051081-0.10922-0.00201-0.056327-0.059945l0.00156-0.00156c0.0023-0.00233 0.00437-0.00521 0.0062-0.00827-0.00233-0.00414-0.00469-0.00829-0.00723-0.012401-0.00508-0.00881-0.012216-0.016526-0.016536-0.025839-0.00446-0.00805-0.00855-0.016214-0.011885-0.024805-0.00355-0.00795-0.00788-0.015801-0.011369-0.02377-0.00468-0.010179-0.00922-0.020132-0.013435-0.030489-0.0035-0.00952-0.00787-0.019114-0.011885-0.028422-0.00389-0.00929-0.00701-0.01882-0.00775-0.028939-0.00114-0.00665-0.00357-0.012719-0.00568-0.019122-0.00306-0.011213-0.00535-0.022564-0.00672-0.034106-0.00114-0.00941-0.0037-0.018902-0.00362-0.028422v-0.022738c2.9e-6 -0.00774-1.35e-5 -0.014997 0-0.022738 1.43e-5 -0.00649-7.01e-5 -0.013147 0-0.019637 1e-4 -0.00822-1.021e-4 -0.016595 5.292e-4 -0.024805 5.821e-4 -0.010001 0.00151-0.020161 0.00362-0.029972 0.00204-0.00836 0.00499-0.015872 0.00827-0.02377 0.00251-0.00718 0.00475-0.014335 0.00672-0.021704 0.00257-0.00756 0.00588-0.015198 0.00878-0.022738-0.00635-0.016531-7.673e-4 -0.03952 0.025321-0.060461 0.00283-0.00228 0.00167-9.26e-4 0.00465-0.00517 0.00354-0.0046 0.00648-0.00923 0.00982-0.013952l5.292e-4 -5.292e-4c0.00101-0.00175 0.00225-0.00337 0.0031-0.00517 0.00331-0.00622 0.00748-0.011946 0.010851-0.018087 0.00169-0.00241 0.00341-0.00487 0.00517-0.00723 0.0035-0.00475-0.00225 0.00793 0.00156-0.00156 0.00257-0.0069 0.00418-0.014068 0.0062-0.021188 0.00324-0.00941 0.00629-0.018815 0.010335-0.027905 0.00406-0.00833 0.00833-0.016521 0.011369-0.025321 0.00332-0.00837 0.00713-0.01642 0.012401-0.02377 0.00534-0.00766 0.0028-0.00169 0.00517-0.00827 0.00212-0.00632 0.00452-0.012375 0.00672-0.018603 0.00262-0.00693 0.00135-0.01551 0.00517-0.02222 0.00304-0.00763 0.00681-0.014573 0.010853-0.021704 0.00307-0.00547 0.00709-0.010922 0.00878-0.017052 0.00293-0.00722 0.00706-0.013594 0.0093-0.020672 0.00266-0.00816 0.00642-0.015981 0.00982-0.02377 0.0031-0.00708 0.00629-0.013647 0.00827-0.021188 0.00267-0.00616 0.00638-0.011906 0.00878-0.018087 0.00265-0.00679 0.00587-0.013457 0.00723-0.020672 0.00222-0.00707 0.00523-0.013446 0.00827-0.020153 0.0023-0.00561 0.00456-0.010766 0.00672-0.016536 0.00238-0.00514 0.00366-0.00944 0.00568-0.016536 0.00278-0.00747 0.0059-0.01501 0.0093-0.02222 0.00143-0.00278 0.00282-0.00549 0.00414-0.00827 2.91e-4 -0.00124 0.00114-0.00241 0.00156-0.00362 0.00175-0.00417 0.00328-0.00806 0.00568-0.011885 0.00254-0.00652 0.00542-0.010591 0.0062-0.013952 0.00249-0.00751 0.00547-0.014843 0.00827-0.02222 0.00292-0.00752 0.00605-0.015081 0.00982-0.02222 0.0027-0.00479 0.00502-0.00996 0.00723-0.014986 0.00254-0.00641 0.00471-0.012689 0.00723-0.019121 0.00273-0.00567 0.00574-0.011292 0.00827-0.017052 0.00265-0.00384 0.00336-0.00861 0.00465-0.011885 0.00209-0.00693 0.00352-0.00882 0.00362-0.011885 9.26e-4 -0.00746 0.00159-0.014991 0.00362-0.02222 3.44e-4 0.00651 3.44e-4 -0.011703 5.292e-4 -0.012404 2.35e-5 -0.00602-1.199e-4 -0.012068 0-0.018087 1.577e-4 -0.00673 2.91e-4 -0.013454 0.00103-0.020153 6.56e-5 -5.291e-4 4.498e-4 -0.00101 5.291e-4 -0.00156-0.036845-0.00135-0.033914-0.010925-0.027905-0.035657 0.00116-0.00479 0.00196-0.00834 0.0031-0.01447 5.821e-4 -0.00254 0.00765-0.036117 0.00982-0.037207 0.00409-0.00204 0.00826-0.00355 0.012401-0.00517 0.011705-0.02904 0.023593-0.058099 0.037207-0.0863 0.00266-0.00551 0.00487-0.011446 0.00827-0.016536 0.0041-0.00615 0.00924-0.011353 0.013952-0.017052 7.408e-4 -3.704e-4 0.00132-0.00106 0.00206-0.00156 0.00898-0.025326 0.017965-0.050616 0.026872-0.075964-1.14e-5 -0.00484-3.36e-5 -0.00969 0-0.01447 7.06e-5 -0.00864 6.35e-4 -0.017209 0.00103-0.025839 1.746e-4 -0.00348 5.31e-5 -0.00687 5.291e-4 -0.010335-0.00388 0.00449-0.00675 0.00976-0.010853 0.013952-0.0072 0.00675-0.015158 0.015044-0.025321 0.017052-0.00254 5.027e-4 -0.00516 8.202e-4 -0.00775 0.00103-0.010393 0.025826-0.022318 0.051413-0.032039 0.077515-0.00548 0.015171-0.00995 0.030501-0.01447 0.045992 0.00378 0.00412 0.00755 0.00805 0.011885 0.013435 0.00249 0.00311-0.0072 0.02344-0.00878 0.027389-0.00739 0.017108-0.013234 0.034904-0.020153 0.052193-0.00574 0.013502-0.010724 0.027468-0.015502 0.041341-0.00384 0.011859-0.00969 0.022849-0.014986 0.034106-0.00444 0.00848-0.00548 0.018029-0.00672 0.027388-0.00143 0.017309-0.00601 0.033898-0.010335 0.050643-0.00385 0.012861-0.00629 0.026122-0.00878 0.039274-0.00249 0.016457-0.0086 0.031759-0.016021 0.046509-0.00326 0.00627-0.0065 0.012374-0.00982 0.018603-0.00695 0.013023-0.015883 0.020574-0.024289 0.024289-0.0046 0.013081-0.0092 0.026244-0.013952 0.039274-0.00156 0.00399-0.00303 0.00792-0.00465 0.011885 0.00156 0.00257 0.00334 0.00504 0.00465 0.00775 0.00151 0.00314-0.0018 0.00659-0.0031 0.00982-0.012869 0.031814-0.030137 0.062132-0.045992 0.092501-0.016825 0.033683-0.032212 0.068406-0.049609 0.1018-0.00524 0.00465-0.00869 0.015608-0.015502 0.013951h-5.292e-4c-6.879e-4 0.00156-0.0014 0.00309-0.00206 0.00465-0.00346 0.00803-0.00701 0.016198-0.010335 0.024289-0.00278 0.00674-0.00401 0.014235-0.00827 0.020153-0.00836 0.011615-0.019198 0.02104-0.028939 0.031523-0.00249-0.00135-0.00516-0.00243-0.00775-0.00362-0.015417 0.028025-0.02937 0.056297-0.044958 0.084233-0.012552 0.01588-0.014052 0.018246-0.025839 0.00878-7.144e-4 0.00225-0.00138 0.00446-0.00206 0.00672 0.00461 0.00316 0.00905 0.00601 0.014986 0.010853 0.00593 0.00483-0.00302 0.038982-0.00465 0.045992-0.010086 0.037327-0.024945 0.072996-0.038757 0.10904-0.010075 0.022524-0.015931 0.046829-0.028422 0.068213-5.292e-4 0.00376-0.00159 0.00793-0.00156 0.011369 1.704e-4 0.018563-0.00169 0.04454-0.00259 0.063045-2.78e-5 5.292e-4 2.75e-5 0.00103 0 0.00156 0.012012 0.00424 0.020265 0.01583 0.022738 0.031522 0.00297 0.030884 2.149e-4 0.062035 0.00103 0.093018-6.72e-5 0.015833 2.04e-4 0.031713-5.292e-4 0.047542-1.27e-5 4.233e-4 -7.01e-5 0.00103 0 0.00156 4.234e-4 0.00302 0.00198 0.00692-5.291e-4 0.00723-0.00551 6.879e-4 -0.010975 8.995e-4 -0.016536 0.00103-0.00138 0.0052-0.00287 0.010456-0.00465 0.015502-4.498e-4 0.00124-0.00103 0.00238-0.00156 0.00362 0.013877 0.0014 0.027717 0.00735 0.037724 0.017052 0.00295 0.00285 0.00436 0.00647 0.00672 0.00982 0.00164 0.0057 0.00401 0.011226 0.00517 0.017052 0.00243 0.012173-0.00384 0.033662-0.00568 0.045992-7.144e-4 0.00274-0.0018 0.00553-0.00259 0.00827 1.407e-4 3.44e-4 3.968e-4 6.879e-4 5.291e-4 0.00103 9.79e-4 -3.704e-4 0.00206-7.938e-4 0.0031-0.00103 0.00543-0.0013 0.010996-0.00138 0.016536-0.00206 0.00808 0.00447 0.020799 0.00489 0.024289 0.013435 0.00988 0.024212 4.498e-4 0.039196-0.01292 0.05271 0.00681 0.00904 0.00849 0.024302 5.292e-4 0.043408-0.00138 0.00321-0.00355 0.00579-0.00569 0.00878 7.938e-4 7.408e-4 0.00185 0.00127 0.00259 0.00206 0.012941 0.013846 0.02631 0.037325 0.03204 0.05581 0.0034 0.010949 0.00442 0.02236 0.00672 0.03359 0.00848 0.059644-0.00819 0.11768-0.025321 0.17415-0.00204 0.00946-0.00551 0.01859-0.00878 0.027905 0.00222-3.44e-4 0.00495-9.79e-4 0.00517-0.00103 0.013412-0.00298 0.023312-0.00604 0.037207-0.00775 0.016462-6.35e-4 0.029383 0.00445 0.03669 0.01602 0.016005-0.00371 0.030536-0.00267 0.046509 0.013952 0.00388 0.00403 0.00406 0.010332 0.0062 0.015502 0.00287 0.01297-8.467e-4 0.024733-0.00414 0.03669 0.00537 0.00687 0.010358 0.014322 0.013951 0.02222 0.00164 0.00363-0.00537 0.00553-0.00827 0.00827-0.00839 0.00794-0.01791 0.015163-0.027389 0.021704-0.023432 0.013975-0.042182 0.00744-0.055294-0.014986-0.00269-0.0046-0.00403-0.011983-0.00517-0.017052-2.276e-4 -0.00153-2.911e-4 -0.00312-5.292e-4 -0.00465-4.498e-4 3.969e-4 -0.00106 6.35e-4 -0.00156 0.00103-0.00277 0.0023-0.00579 0.0047-0.00878 0.00672-0.025053 0.00646-0.02313 0.00736-0.027905-0.024289-0.00727-0.00275-0.014505-0.00536-0.021704-0.00827-0.0038-0.00143-0.00717-0.00353-0.010851-0.00517-0.00169-2.91e-4 -0.00346 1.36e-4 -0.00517-5.291e-4 -0.00642-0.00406-0.013435-0.00743-0.019121-0.012401-5.556e-4 -5.027e-4 -0.00153-5.027e-4 -0.00206-0.00103-4.498e-4 -4.763e-4 -6.085e-4 -0.00106-0.00103-0.00156-0.00952-0.00701-0.018322-0.015195-0.025321-0.025321-0.00439-0.00636-0.00801-0.013473-0.011885-0.020153-0.00273-0.00604-0.00572-0.011777-0.00775-0.018087-0.012708-0.039547-0.011816-0.083516-0.012401-0.12454-4.498e-4 -0.020645 2.069e-4 -0.04085 0-0.061495-5e-6 -5.027e-4 7.23e-5 -0.014922-5.291e-4 -0.021188-4.498e-4 2.172e-4 -0.00106 2.91e-4 -0.00156 5.292e-4 -5.92e-5 7.143e-4 8.95e-5 0.00159 0 0.00206-7.408e-4 -3.175e-4 -0.00135-6.879e-4 -0.00206-0.00103-0.016071 0.00754-0.031924 0.014806-0.051676 0.02377-0.067492 0.0283-0.13407 0.060505-0.20412 0.082166-0.013547 0.0043-0.045537 0.00912-0.054777-0.00672-0.00634-0.010864-0.00837-0.024122-0.00878-0.03669-3.175e-4 -0.00923 0.015716-0.029093 0.019637-0.034623 0.018383-0.022379 0.03926-0.042819 0.060978-0.062012-0.0019-9.261e-4 -0.00374-0.00172-0.00569-0.00259-0.00361-0.00265-0.00889-0.00372-0.010851-0.00775-0.00512-0.010522-0.00928-0.022416-0.00982-0.034106-7.84e-5 -0.00172 6.085e-4 -0.00339 0.00103-0.00517-0.0088 0.00119-0.017502 0.00233-0.026355 0.0031-0.01705 3.439e-4 -0.034672 0.00311-0.051676 5.291e-4 -0.00465-7.673e-4 -0.00937-0.00201-0.013954-0.0031-0.011441-0.00408-0.020397-0.011274-0.026355-0.020153-0.00278-4.26e-5 -0.00549-9e-6 -0.00827 0-0.011729-0.00387-0.025514-0.00432-0.035657-0.011369-0.01723-0.011972-0.00883-0.0339-0.00362-0.048059 0.00183-0.00495 0.015928-0.016124 0.020672-0.021704-0.00778-0.00628-0.00766-0.00806 0.00259-0.017571 0.00627-0.0046 0.013272-0.00801 0.020153-0.011369 0.00249-0.00204 0.024958-0.017799 0.030489-0.01602 0.00642-0.0035 0.012795-0.00667 0.019637-0.0093 0.00641-6.879e-4 0.013068-0.00451 0.019121-0.00206 0.033588 0.012496 0.028442 0.038177 0.013436 0.060461-0.00262 0.00424-0.00508 0.00872-0.00775 0.01292 0.055488-0.00707 0.11074-0.017791 0.16588-0.026355 0.00259-3.704e-4 0.00516-6.614e-4 0.00775-0.00103-1.545e-4 -0.0018-4.233e-4 -0.00323-5.292e-4 -0.00517-3.704e-4 -0.00906 0.012539-0.020844 0.017571-0.026355 0.00677-0.00549 0.013848-0.010269 0.021188-0.014986 8.202e-4 -0.0031 0.00196-0.00608 0.0031-0.0093-0.00593-0.00608-0.00668-0.020526-0.00569-0.036174-5.027e-4 5.292e-4 -0.00106 0.00101-0.00156 0.00156-0.013229-0.010766-0.029072-0.019288-0.039791-0.032556-0.00293-0.00363 0.0018-0.00884 0.00259-0.013435 0.0044-0.025583 0.00819-0.051384 0.012401-0.076998-0.028539 0.00519-0.035858-3.58e-5 -0.028939-0.031523 0.00759-0.034667 0.015772-0.06916 0.025321-0.10335 0.013594-0.049368 0.028379-0.098478 0.043925-0.14728-0.0013-5.291e-4 -0.00225-9.525e-4 -0.00362-0.00156-0.00396-0.00169-0.0049-0.00989-0.00465-0.019121-2.646e-4 0.00356-0.00122 0.00602-0.0031 0.00723-0.00631 0.015594-0.014655 0.020047-0.042891-0.00259-0.010258-0.00235-0.013623-0.00629-0.013436-0.011885-3.175e-4 -2.911e-4 -7.143e-4 1.13e-5 -0.00103-5.292e-4 -0.00466-0.00418 0.00364-0.011639 0.00569-0.017571 0.00246-0.00718 0.00478-0.014533 0.00723-0.021704 0.00388-0.010242 0.00769-0.020698 0.011369-0.031006 0.0103-0.031907 0.02068-0.063703 0.031006-0.095601-0.00568-0.0023-0.011028-0.00465-0.019121-0.00878-0.00499-0.00257-0.00332-0.016121-0.00103-0.028939-0.00246-0.00138-0.00392-0.00209-0.00672-0.00362-0.0044-0.00241 0.00116-0.038612 0.00206-0.044442 0.00515-0.026413 0.012763-0.052686 0.020153-0.078548h-5.292e-4c-0.00235-0.00228-0.0013-0.00656-0.00156-0.00982-0.00164-0.021881 0.00335-0.043755 0.00723-0.065112 0.00347-0.018526 0.00857-0.036558 0.01292-0.054777-0.00491-0.00201-0.01035-0.0041-0.016536-0.0062-2.646e-4 -9.05e-5 -4.498e-4 -0.00691-5.291e-4 -0.00775-3.44e-4 -0.00754-5.028e-4 -0.015187-5.292e-4 -0.022738-1.67e-5 -0.00783 1.3e-6 -0.015941 0-0.02377v-0.019121c-4.233e-4 -0.00883-2.01e-5 -0.01732 0.00259-0.025839 0.00837-0.028647 0.020542-0.00738 0.031523 0.011885-5.556e-4 -0.00791-0.00135-0.01579-0.00103-0.02377-0.014057-0.00161-0.017481-0.00289-0.015502-0.010853h-5.292e-4c-0.00101-2.91e-4 7.409e-4 -0.00159 0.00103-0.00259 3.44e-4 -0.00111 2.911e-4 -0.0018 5.292e-4 -0.00259 2.058e-4 -6.879e-4 2.91e-4 -7.938e-4 5.292e-4 -0.00156 1.278e-4 -3.705e-4 3.968e-4 -6.615e-4 5.291e-4 -0.00103 5.027e-4 -0.00193 0.00101-0.00364 0.00206-0.00775 8.202e-4 -0.00321 0.00175-0.0061 0.00259-0.0093 0.00501-0.01797 0.010573-0.036005 0.01447-0.05426 4.89e-5 -6.879e-4 -4.93e-5 -0.00138 0-0.00206 1.616e-4 -0.00212 3.704e-4 -0.00287 5.291e-4 -0.00465v-5.292e-4c3.23e-5 -3.969e-4 4.763e-4 -6.35e-4 5.292e-4 -0.00103 0.00127-0.015039 0.00291-0.018465 0.024289-0.01447 0.00628-0.013859 0.011999-0.028208 0.017571-0.042375 0.0063-0.017637 0.01633-0.033246 0.026872-0.048576 0.00973-0.012036 0.017714-0.024818 0.024289-0.038758 0.00852-0.018576 0.010975-0.027953 0.027388-0.023254 0.022887-0.030834 0.047486-0.06058 0.072864-0.0894 0.018645-0.019082 0.035104-0.040047 0.052193-0.060461 0.012025-0.015436 0.018034-0.027724 0.03514-0.018603 0.00423-0.00526 0.00852-0.010377 0.01292-0.015502 0.01143-0.016161 0.023511-0.031816 0.036174-0.047025 0.00262-0.00398 0.016076-0.015716 0.026355-0.019121 0.011181-0.011441 0.022556-0.023045 0.034106-0.034106 0.010361-0.010059 0.03279-0.020878 0.045992-0.00723 0.00723 0.00742 0.010427 0.017851 0.013436 0.027905 0.00389-0.00441 0.00729-0.00919 0.011369-0.013436 0.014378-0.014192 0.029773-0.02699 0.047542-0.03669 0.00291-0.00106 0.00521-0.00143 0.00775-0.00206 3e-3 -0.00378 0.01424-0.013843 0.02377-0.019122l5.292e-4 -5.291e-4c9.261e-4 -0.00435 0.0019-0.00875 0.00362-0.01292 0.018251 0.00727 0.037822 0.011785 0.054777 0.021704 0.0027 0.00159-0.00143 0.00624-0.00206 0.0093v5.292e-4c-5.61e-5 0.00138-4.498e-4 0.00273-5.292e-4 0.00414 0.00549-0.00135 0.010761-0.00262 0.016536-0.0031 0.022865-1.59e-4 0.035001 0.015999 0.041858 0.03514 3.44e-4 -0.00172 7.409e-4 -0.00343 0.00103-0.00517 0.00214-0.011332 0.00566-0.022632 0.0062-0.034107 8.996e-4 -0.019368 0.00841-0.029762 0.017052-0.036174 0.00421-0.022759 0.00827-0.045425 0.012401-0.068213 0.00829-0.034976 0.011364-0.055701 0.031523-0.053227 0.00214-0.00539 0.00458-0.010618 0.00672-0.01602 0.016563-0.040678 0.03183-0.08198 0.047542-0.12299 0.00466-0.030004 0.00779-0.060444 0.00723-0.09095-5.821e-4 -0.032101 0.012054-0.05096 0.027389-0.057878 6.879e-4 -0.00433 0.00156-0.00849 0.00206-0.012404 0.00635-0.042571 0.012888-0.08513 0.019637-0.12764 0.00436-0.027236 0.00841-0.039731 0.02222-0.042375 0.00315-0.013361 0.00666-0.027067 0.010335-0.040307 0.00567-0.020368 0.010337-0.04082 0.01447-0.061495-9.525e-4 -0.00988-0.00161-0.019857-0.00362-0.029456-0.0031-0.015121-0.00692-0.030132-0.00878-0.045475-0.00459-0.037338 0.010615-0.059509 0.028939-0.065629 1.965e-4 -0.00257 3.439e-4 -0.00519 5.291e-4 -0.00775 0.00124-0.018404 0.0018-0.036853 0.00206-0.055294 1.23e-4 -0.00935 4.498e-4 -0.018555 5.291e-4 -0.027905-2.645e-4 -0.00759-6.085e-4 -0.015809 0-0.019637v-5.398e-4c9.6e-6 -0.00172-1.03e-5 -0.00344 0-0.00517 6.9e-6 -8.996e-4 -8.995e-4 -0.00259 0-0.00259 0.0038 8.55e-5 0.00635-3.02e-5 0.00982 0 0.0034-4.498e-4 0.00906-1.937e-4 0.014986 0v-0.12144c-2.595e-4 -0.00531-1.968e-4 -0.010589 0-0.016021-1.37e-5 -0.00814 7.52e-5 -0.016145 0-0.024289-3.62e-5 -0.00347 5.93e-5 -0.0069 0-0.010335v-0.00103c-7.17e-5 -0.00378-3.175e-4 -0.00756-5.291e-4 -0.011369-3.44e-4 -0.00647-7.938e-4 -0.013266-0.00206-0.019637-0.00249-0.012906-0.00651-0.025437-0.00568-0.038758-4.21e-5 -0.011335-1.776e-4 -0.022773-5.292e-4 -0.034106-2.646e-4 -0.012115-5.556e-4 -0.024093-0.00156-0.036174-0.00124-0.015989-0.00284-0.032187-0.00517-0.048059-0.00402-0.027417 0.00283-0.046712 0.013952-0.057361-2.75e-5 -3.439e-4 2.89e-5 -6.879e-4 0-0.00103-8.202e-4 -0.00937-0.00201-0.018846-0.00465-0.027905-0.00347-0.012605-0.00633-0.025535-0.0093-0.038241-0.00414-0.013343-0.00936-0.026083-0.013952-0.039274-0.00665-0.018349-0.012404-0.036959-0.019121-0.055294-0.00567-0.017904-0.010591-0.036529-0.012401-0.055294-0.00198-0.016261-0.00567-0.032109-0.00517-0.048576v-0.22169c0-0.040926 0.020672-0.061495 0.041341-0.061495zm-0.61443 2.6495c-3.969e-4 8.732e-4 -0.00185 0.00417-0.00206 0.00465 8.202e-4 -0.00156 0.00177-0.00308 0.00259-0.00465zm-0.22841 0.017571c-0.00161 0.00588-0.00351 0.0117-0.00517 0.017571 7.938e-4 -4.498e-4 0.00177-6.615e-4 0.00259-0.00103-5.24e-5 -0.00385 0.00114-0.010036 0.00259-0.016536zm0.50695 0.076998c-0.00386 0.00856-0.00871 0.016626-0.012401 0.025321-0.00739 0.019161-0.016904 0.037621-0.026355 0.055811-0.00787 0.015314-0.015095 0.03083-0.023254 0.045992-0.00687 0.013271-0.016134 0.025127-0.023254 0.03824-0.00714 0.01212-0.012742 0.024691-0.019119 0.037207-0.010668 0.020897-0.02562 0.0391-0.037207 0.059428-0.00567 0.011922-0.010681 0.023813-0.017571 0.03514-0.00688 0.00942-0.013687 0.018439-0.021188 0.027388-0.00704 0.00815-0.013137 0.017764-0.019637 0.026355-0.00453 0.00647-0.010184 0.011803-0.01602 0.017052-0.00814 0.00733-0.016044 0.01216-0.02377 0.015502-1.413e-4 3.705e-4 -3.704e-4 6.615e-4 -5.291e-4 0.00103-0.00291 0.00766-0.00569 0.015475-0.00827 0.023254-0.00193 0.00754-0.0047 0.014851-0.00723 0.02222-0.0018 0.00619-0.00513 0.011708-0.0062 0.018087-0.0013 0.00664-0.00222 0.013414-0.00259 0.020153-3.44e-4 0.00735-4.234e-4 0.014343-5.292e-4 0.021704-6.83e-5 0.0063 1.35e-5 0.012822 0 0.019121-1.35e-5 0.0077 1.3e-6 0.015555 0 0.023254-1.6e-6 0.00751 0 0.014711 0 0.02222 5.292e-4 0.00656 0.0022 0.014158 0.0031 0.021188 0.00132 0.00843 0.00246 0.017201 0.00517 0.025321 0.00296 0.00802 0.00507 0.015907 0.00672 0.024289 0.00103 0.00346 9.26e-4 0.00732 0.00156 0.010853 0.00156 0.00175 0.00164 0.00405 0.00259 0.0062 0.00439 0.010081 0.00905 0.020193 0.01292 0.030489 0.00368 0.00894 0.00778 0.018071 0.011885 0.026872 0.00355 0.00802 0.00715 0.015822 0.010853 0.02377 0.00275 0.00726 0.00659 0.013891 0.010335 0.020672l5.291e-4 5.292e-4c2.244e-4 -6.615e-4 2.911e-4 -0.0014 5.292e-4 -0.00206 0.0047-0.01406 0.00889-0.02845 0.0093-0.043408 0.00212-0.018346 0.00516-0.03613 0.010851-0.053743 0.0013-0.00478 0.00246-0.00964 0.00362-0.01447-7e-3 -0.030418 0.00183-0.052246 0.01602-0.061495 0.00401-0.018579 0.00675-0.037484 0.011885-0.055811 0.00441-0.020169 0.00796-0.040808 0.01447-0.060462 0.00551-0.018727 0.00994-0.037431 0.016536-0.05581 0.00598-0.017643 0.010327-0.036018 0.01602-0.053744 0.00574-0.01856 0.00931-0.037099 0.01447-0.055811 0.00668-0.023955 0.013004-0.048005 0.020153-0.07183 0.00701-0.024061 0.014412-0.048452 0.024805-0.071313 0.00548-0.013279 0.00999-0.026844 0.014986-0.040308 0.00607-0.01706 0.00911-0.034644 0.013435-0.052193 0.00406-0.017484 0.00817-0.034752 0.012401-0.052193zm-0.31884 0.096635c-6.085e-4 6.086e-4 -9.26e-4 0.00146-0.00156 0.00206-0.00274 0.00172-0.00559 0.00339-0.00827 0.00517-5.821e-4 3.704e-4 0.00794-0.00477 0.00775-0.00414-0.00122 0.00425-0.00269 0.00791-0.00465 0.011885 0.00217-0.00504 0.0045-0.00998 0.00672-0.014986zm-0.00672 0.014986c-0.00146 0.00295-0.00319 0.00584-0.00465 0.00878 3.175e-4 -5.9e-5 7.144e-4 4.84e-5 0.00103 0 0.00124-0.00292 0.00235-0.00587 0.00362-0.00878zm0.03204 0.052193v5.292e-4c4.762e-4 -5.45e-5 0.00106-9.55e-5 0.00156 0-6.35e-4 -2.633e-4 -6.35e-4 1.532e-4 -0.00156-5.292e-4zm-0.099736 0.1726c-5.292e-4 0.00103-0.00103 0.00206-0.00156 0.0031 5.556e-4 -6.085e-4 9.789e-4 -8.202e-4 0.00156-0.00156 2.519e-4 -3.175e-4 6.06e-5 -0.00114 0-0.00156zm-0.13642 0.38499c-5.18e-5 3.704e-4 -4.762e-4 6.614e-4 -5.292e-4 0.00103 3.175e-4 2.204e-4 7.144e-4 2.91e-4 0.00103 5.291e-4 5.45e-5 -3.439e-4 -5.45e-5 -6.879e-4 0-0.00103zm0.010335 0.095085c-0.00172 0.00381-0.00351 0.00754-0.00517 0.011369 0.00276-0.00116 0.00548-0.00254 0.00827-0.00362-0.00114-0.0023-0.00212-0.00513-0.0031-0.00775zm0.047543 0.053743c4.762e-4 -2.91e-4 -0.00222 4.498e-4 -0.00362 0.00103 0.00228 0.00103 0.00444 0.00212 0.00672 0.0031 2.384e-4 -0.00138 3.175e-4 -0.00273 5.292e-4 -0.00414-0.00148 2.278e-4 -0.00321 5.556e-4 -0.00362 5.291e-4zm-0.15451 0.0863c-0.00293 4.233e-4 -0.00588 0.00111-0.00878 0.00156-0.0031 4.763e-4 -0.0062 0.00106-0.0093 0.00156 0.00335 0.00707 0.00632 0.013957 0.0093 0.021188 3.44e-4 8.202e-4 -0.00127 0.00114-0.00206 0.00156-0.00188 9.79e-4 -0.00383 0.00156-0.00569 0.00259-0.011729 0.00643-0.023217 0.013377-0.034106 0.021188-9.26e-4 6.615e-4 -0.00566 0.0041-0.00982 0.00723 0.00225 3.704e-4 0.00446 6.879e-4 0.00672 0.00103 0.020307-0.014753 0.040915-0.029158 0.063562-0.039791 0.00478-0.00175 0.00941-0.00306 0.013435-0.00362 0.00111-0.00156 0.00164-0.00265 0.0031-0.00465 5.027e-4 -5.292e-4 0.00103-0.00103 0.00156-0.00156-0.00887 2.13e-4 -0.017576-5.821e-4 -0.02377-0.00465-0.00161-0.00106-0.00273-0.00249-0.00414-0.00362zm0.00982 0.063045c-6.35e-4 -3.44e-4 2.646e-4 7.408e-4 0.00103 0.00156 3.439e-4 2.22e-5 6.879e-4 -2.22e-5 0.00103 0 1.604e-4 1.27e-5 8.467e-4 -1.43e-5 0.00103 0-0.00103-5.556e-4 -0.00206-0.00101-0.0031-0.00156zm0.1788 0.044442c-0.00262 0.00143-0.00474 0.00282-0.00723 0.00414 0.00326 0.00552 0.00655 0.011075 0.00878 0.017052 0.00151 0.00399 3.704e-4 0.00866 5.292e-4 0.01292 9.525e-4 0.025545-2.345e-4 0.050926 5.291e-4 0.076481 3.969e-4 0.028849 3.44e-4 0.05765 0.00414 0.0863 4.233e-4 0.00325 0.00101 0.00657 0.00156 0.00982 0.014057-0.046179 0.028634-0.093313 0.022738-0.14211-0.00405-0.027218-3.969e-4 -0.015785-0.010853-0.040824-0.0018-0.00427-0.00278-0.0088-0.00569-0.012401-0.00338-0.00419-0.00798-0.00725-0.012401-0.010335-0.00106-7.408e-4 -0.00116-4.233e-4 -0.00206-0.00103zm-0.22686 0.010853c-5.821e-4 4.498e-4 -9.79e-4 0.00106-0.00156 0.00156-0.020174 0.016076-0.039579 0.033407-0.057878 0.051677 0.038438-0.014512 0.075981-0.031684 0.11369-0.048059-0.00292-2.156e-4 -0.00587-2.91e-4 -0.00878-5.292e-4 -0.015195-0.00106-0.030318-0.00293-0.045475-0.00465zm-0.11627 0.07028c-0.00122-3.01e-5 -0.0043 0.00222-0.0031 0.00206 0.00233-2.911e-4 0.00446-9.261e-4 0.00672-0.00156-0.00124-1.256e-4 -0.00246-4.762e-4 -0.00362-5.291e-4zm0.51056 0.22944c0.00214 0.00274 0.00398 0.00557 0.0062 0.00827-8.996e-4 -0.00364-0.00233-0.00607-0.0062-0.00827zm2.7368 2.482c0.035995-0.00196 0.086583 0.039392 0.22738 0.13074 0.019775 0.01283 0.00409 0.047231 0.00362 0.070797-0.0013 0.06563-0.010578 0.13249-0.019121 0.19844 0.15322-0.10165 0.30009 0.00883 0.23719 0.1788 0.017005 0.00233 0.034052 0.00501 0.050643 0.0093 0.019894 0.00515 0.038651 0.01351 0.056844 0.024289 0.018624-0.0162 0.038333-0.031759 0.059428-0.044958 0.023474-0.01469 0.049609-0.024381 0.074414-0.03669 0.11298-0.038195 0.24338 0.02824 0.2682 0.1478 0.011853 0.05709 0.00262 0.11077-0.01292 0.1633 0.026741 0.0059 0.045624 0.01047 0.060978 0.01499 0.054262-0.10863 0.00196-0.05205 0.2806-0.09612 0.010774 0.01182 0.016976 0.0237 0.024805 0.03566-5.292e-4 -0.0054-0.00151-0.0107-0.00259-0.01602-0.00648-0.03191 0.00864-0.04939 0.025321-0.04858 0.012973 6.35e-4 0.026979 0.0124 0.032039 0.03721 0.00209 0.01027 0.00314 0.02059 0.00414 0.03101 9.26e-4 0.01049 0.00132 0.021 0.00156 0.03152 1.548e-4 0.0077-3.91e-5 0.01556 0 0.02325 2.89e-5 0.0062-5.5e-6 0.0124 0 0.0186 5.3e-6 0.0066-5e-7 0.01356 0 0.02015v0.11523c-7.54e-5 0.01255 5.557e-4 0.02522-5.291e-4 0.03772-0.00188 0.01008-0.0028 0.01989-0.00465 0.02997-0.0018 0.0096-0.00494 0.0188-0.00827 0.02791-3e-3 0.0077-0.00574 0.01555-0.00878 0.02325-0.00319 0.0078-0.00642 0.01534-0.010335 0.02274-0.00272 0.0066-0.00724 0.01274-0.0093 0.01964-0.00193 0.0088-0.00837 0.01599-0.011369 0.02429-0.0037 0.0093-0.00806 0.01859-0.01292 0.02739-0.00605 0.0093-0.01062 0.01934-0.01602 0.02894-0.00567 0.0092-0.010747 0.0188-0.016537 0.02791-0.00619 0.0098-0.013658 0.01859-0.021188 0.02739-0.00544 0.0068-0.012158 0.01284-0.017571 0.01964-0.00737 0.0094-0.013576 0.01934-0.020672 0.02894-0.00737 0.0086-0.01274 0.01851-0.019121 0.02791-0.00664 0.0087-0.013057 0.01755-0.019637 0.02635-0.00788 0.01038-0.016513 0.01984-0.025321 0.02946-0.00584 0.0061-0.010827 0.01355-0.016021 0.02015-0.00451 0.0077-0.012597 0.01242-0.018087 0.01912-0.00397 0.0041-0.00622 0.0078-0.00982 0.0124-0.00643 7e-3 -0.01251 0.01429-0.019121 0.02119-0.00497 0.0042-0.00863 0.0096-0.01292 0.01447-0.00592 0.0068-0.011933 0.01364-0.018603 0.01964-0.00694 5e-3 -0.012904 0.01075-0.018603 0.01706-0.00666 0.0086-0.015187 0.01504-0.022738 0.02274-0.00301 0.0039-0.00782 0.0065-0.010853 0.01033-0.011001 0.01365-0.022926 0.01944-0.033073 0.01964 3.704e-4 0.0024 6.614e-4 0.0048 0.00103 0.0072 0.00289 0.01629 0.00547 0.03264 0.00723 0.04909 0.00127 0.01207 0.00122 0.02404 0.00156 0.03617 2.122e-4 0.0081 4.498e-4 0.01629 5.292e-4 0.02429 2.09e-5 0.0032-9.8e-6 0.0061 0 0.0093 1.759e-4 0.05788-0.058218 0.05824-0.058395 5.29e-4 -9.3e-6 -0.0031 2.06e-5 -0.0062 0-0.0093-5.11e-5 -0.0076-3.175e-4 -0.01565-5.292e-4 -0.02325-2.911e-4 -0.01059-4.763e-4 -0.02097-0.00156-0.03152-7.408e-4 -0.0071-0.00209-0.01418-0.0031-0.02119-0.10702 0.15285-0.1935 0.10774-0.32504-0.02635-0.016309 0.0037-0.032507 0.0068-0.049093 0.0088-0.00175 2.03e-4 -0.00343 3.7e-4 -0.00517 5.29e-4 -0.13827 0.12996-0.31324 0.01966-0.25632-0.1726-0.0014-0.0034-0.00282-0.0069-0.00414-0.01033-0.00282-0.0077-0.00459-0.01531-0.0062-0.02325-0.00797 0.0093-0.016026 0.0188-0.024289 0.02791-0.077984 0.08123-0.15169 0.16738-0.29507 0.11369-0.065469-0.02451-0.090026-0.07643-0.094568-0.13229-0.015251 0.01683-0.031855 0.03174-0.05116 0.04393-0.024855 0.0157-0.054836 0.04829-0.081132 0.03514-0.081757-0.04089-0.13855-0.11958-0.20774-0.17932 5.556e-4 -0.02762-0.00167-0.05531 0.00206-0.08268 0.029843-0.21893 0.12889-0.45773 0.20154-0.66663 0.069664-0.16777 0.10223-0.35149 0.18604-0.51315 0.046019-0.050122 0.065024-0.078062 0.093018-0.079582zm0.971 0.89452c-0.015301-4.23e-4 -0.021984 0.0043 0.00982 1e-3 -0.00326-6.09e-4 -0.00682-1e-3 -0.00982-1e-3zm0.33383 0.16898c-5.292e-4 8.73e-4 -0.00103 0.0017-0.00156 0.0026 0.00212 2.91e-4 0.00432 2.91e-4 0.0062 5.29e-4 7.46e-5 -3.7e-4 4.498e-4 -1e-3 5.292e-4 -1e-3 -0.00169-6.61e-4 -0.00331-0.0013-0.00517-0.0021zm-1.6929 0.154c-0.00321 3e-3 -0.0067 0.0059-0.00982 0.0083-0.00398 3e-3 -0.0099 0.01723-0.00672 0.01344 0.0058-7e-3 0.011033-0.01444 0.016536-0.0217zm1.4015 0.28474c-7.408e-4 0.0012-0.00132 0.0024-0.00206 0.0036 0.00132-0.0011 0.00273-2e-3 0.00414-0.0031-7.408e-4 -1.23e-4 -0.00135-3.71e-4 -0.00206-5.29e-4z" fill="#f00"/>
</clipPath>
<clipPath id="a">
<path d="m3.7181-0.97513v6.2689c0.00705-0.00201 0.015145 0.011999 0.022738 0.025321-5.556e-4 -0.00791-0.00135-0.01579-0.00103-0.02377-0.014057-0.00161-0.017481-0.00289-0.015502-0.010853h-5.292e-4c-0.00101-2.91e-4 7.408e-4 -0.00159 0.00103-0.00259 3.439e-4 -0.00111 2.91e-4 -0.0018 5.292e-4 -0.00259 2.058e-4 -6.879e-4 2.91e-4 -7.937e-4 5.291e-4 -0.00156 1.278e-4 -3.704e-4 3.969e-4 -6.615e-4 5.292e-4 -0.00103 5.027e-4 -0.00193 0.00101-0.00364 0.00206-0.00775 8.202e-4 -0.00321 0.00175-0.0061 0.00259-0.0093 0.00501-0.017971 0.010573-0.036004 0.01447-0.05426 4.9e-5 -6.879e-4 -4.92e-5 -0.00138 0-0.00206 1.617e-4 -0.00212 3.704e-4 -0.00287 5.292e-4 -0.00465v-5.292e-4c3.2e-5 -3.968e-4 4.762e-4 -6.35e-4 5.292e-4 -0.00103 0.00127-0.015039 0.00291-0.018465 0.024289-0.01447 0.00628-0.013859 0.011999-0.028208 0.017571-0.042375 0.0063-0.017637 0.01633-0.033246 0.026872-0.048576 0.00973-0.012036 0.017714-0.024818 0.024289-0.038758 0.00349-0.010115 0.00718-0.02028 0.010335-0.030489 2.601e-4 -0.00101 0.00359-0.014981 0.00414-0.014986 0.011652-1.418e-4 0.020497-5.32e-5 0.027905-5.292e-4 0.01283-0.031202 0.025956-0.062252 0.039791-0.093018 0.00209-0.0076 0.00385-0.015211 0.0062-0.022738 0.00366-0.011692 0.018838-0.038885 0.037207-0.026872 0.00726-0.015875 0.014182-0.031856 0.020672-0.048059 0.00806-0.020151 0.020973-0.030207 0.032556-0.031522 0.019301-0.0022 0.035078 0.0191 0.021704 0.05271-0.00222 0.00562-0.00488 0.01098-0.00723 0.016536 0.00233-0.00281 0.00484-0.00548 0.00723-0.00827 0.01143-0.016161 0.023511-0.031819 0.036174-0.047026 0.00262-0.00398 0.016076-0.015719 0.026355-0.019121 0.011181-0.011441 0.022556-0.023045 0.034106-0.034106 0.010361-0.010059 0.03279-0.020889 0.045992-0.00723 0.00723 0.00742 0.010427 0.017851 0.013436 0.027905 0.00389-0.00441 0.00729-0.00919 0.011369-0.013435 0.014377-0.014192 0.029773-0.02699 0.047542-0.03669 0.00291-0.00106 0.00521-0.00143 0.00775-0.00206 3e-3 -0.00378 0.01424-0.013851 0.02377-0.019121l5.291e-4 -5.292e-4c9.261e-4 -0.00435 0.0019-0.00875 0.00362-0.01292 0.018251 0.00727 0.037822 0.011785 0.054777 0.021704 0.0027 0.00159-0.00143 0.00624-0.00206 0.0093v5.292e-4c-5.64e-5 0.00138-4.498e-4 0.00273-5.292e-4 0.00414 0.00549-0.00135 0.010761-0.00262 0.016536-0.0031 0.00766-5.29e-5 0.014105 0.00212 0.019637 0.00517 0.00396-0.00502 0.0081-0.00991 0.011885-0.014986 0.0066-0.010136 0.013441-0.020336 0.019121-0.031006 0.00584-0.010959 0.012668-0.017785 0.019637-0.02222 0.00278-0.015179 0.00551-0.030283 0.00827-0.045475 0.00829-0.034976 0.011364-0.055701 0.031523-0.053227 0.00214-0.00539 0.00458-0.010618 0.00672-0.016021 0.016563-0.040678 0.03183-0.08198 0.047542-0.12299 0.00466-0.030004 0.00779-0.060444 0.00723-0.09095-5.821e-4 -0.032101 0.012054-0.05096 0.027389-0.057878 6.879e-4 -0.00433 0.00156-0.00849 0.00206-0.012404 0.00635-0.042571 0.012888-0.08513 0.019637-0.12764 0.00436-0.027236 0.00841-0.039731 0.02222-0.042375 0.00315-0.013362 0.00666-0.027064 0.010335-0.040307 0.00567-0.020368 0.010337-0.04082 0.01447-0.061495-9.525e-4 -0.00988-0.00161-0.019857-0.00362-0.029456-0.0031-0.015121-0.00692-0.030132-0.00878-0.045475-0.00459-0.037338 0.010615-0.059509 0.028939-0.065629 1.966e-4 -0.00257 3.439e-4 -0.00519 5.291e-4 -0.00775 0.00124-0.018404 0.0018-0.036853 0.00206-0.055294 1.23e-4 -0.00935 4.498e-4 -0.018555 5.292e-4 -0.027905-2.646e-4 -0.00759-6.086e-4 -0.015809 0-0.019637v-5.292e-4c9.5e-6 -0.00172-1.04e-5 -0.00344 0-0.00517 6.8e-6 -8.996e-4 -8.996e-4 -0.00259 0-0.00259 0.0038 8.54e-5 0.00635-3.02e-5 0.00982 0 0.00446-5.821e-4 0.010448-3.44e-4 0.019637 0 4.234e-4 1.64e-5 0.00111-1.69e-5 0.00156 0 0.017666-3.175e-4 0.029391-0.00124 0.037207-0.00103 0.00391 1.106e-4 0.00714 7.408e-4 0.0093 0.00156 0.00191-2.6e-5 0.00317 4.23e-5 0.00517 0 8.466e-4 -1.01e-5 6.6e-6 0.00175 0 0.00259-9.3e-6 0.00156 8.4e-6 0.0031 0 0.00465 8.466e-4 0.00467 2.645e-4 0.01524 0 0.025839 0.00854 0.01084 0.014563 0.023357 0.019637 0.036173 0.00699 0.016722 0.00714 0.034731 0.010853 0.052193 0.00349 0.014192 0.0059 0.028402 0.00775 0.042892 0.00172 0.01383 0.00225 0.02794 0.00259 0.041858 2.91e-4 0.012155 4.497e-4 0.024532 5.291e-4 0.03669 4.34e-5 0.010329-9.2e-6 0.020677 0 0.031006 7.2e-6 0.00898-1e-6 0.017891 0 0.026872 1.1e-6 0.011311 0 0.022278 0 0.03359v0.14211c4.498e-4 0.013698-0.00335 0.026841-0.00517 0.040308-0.0014 0.013031-0.00579 0.025305-0.00775 0.038241-0.0018 0.013666-0.00588 0.027255-0.00827 0.040824-0.0014 0.013232-0.00367 0.025805-0.00672 0.038758-0.00334 0.015557-0.0088 0.030513-0.012401 0.045992-0.00411 0.018584-0.00899 0.037075-0.012401 0.05581-0.00278 0.015375-0.00707 0.030828-0.010853 0.045992-0.00361 0.015653-0.00759 0.031038-0.011885 0.046509-0.00217 0.00924-0.00487 0.018201-0.00723 0.027388v0.06098c6.614e-4 0.013864-0.00281 0.027297-0.00517 0.040824-0.00214 0.013679-0.00689 0.023746-0.014986 0.030489-0.00172 0.01292-0.00251 0.025934-0.00465 0.038758-0.00254 0.019312-0.00788 0.038338-0.011885 0.057361-0.00337 0.01782-0.00846 0.034926-0.013951 0.052193-0.00744 0.02173-0.014557 0.043649-0.022738 0.065112-0.00977 0.022775-0.017092 0.046428-0.025321 0.069763-0.00852 0.024889-0.019976 0.048811-0.027905 0.073897-0.00659 0.022992-0.013528 0.046074-0.021188 0.06873-0.0087 0.023527-0.015356 0.047445-0.021188 0.07183-0.00418 0.023894-0.013446 0.046572-0.020153 0.069763-0.00716 0.028543-0.018158 0.055835-0.027388 0.083716-0.00643 0.020468-0.010374 0.041608-0.017052 0.062012-0.00576 0.016007-0.0099 0.032179-0.01447 0.048576-0.00353 0.01483-0.00717 0.029582-0.012401 0.043925-0.00733 0.019095-0.016301 0.03782-0.02377 0.056844-0.0065 0.018788-0.013975 0.03719-0.023254 0.054777-0.00783 0.013676-0.014867 0.02742-0.021188 0.041858-0.00471 0.013359-0.00897 0.026889-0.014986 0.039791-0.00602 0.011536-0.012202 0.022767-0.018603 0.034106-0.00336 0.00449-0.00497 0.00944-0.0062 0.01447-0.00143 0.00587-0.00311 0.01124-0.00517 0.016021-0.00304 0.011202-0.00619 0.02237-0.0093 0.03359-0.00521 0.019476-0.00958 0.039095-0.015502 0.058394-0.00569 0.018449-0.010435 0.037477-0.016536 0.05581-0.00624 0.017407-0.010798 0.035492-0.01602 0.053227-0.00588 0.017762-0.00898 0.036023-0.01292 0.05426-0.0051 0.019844-0.00858 0.039972-0.01292 0.059945 0.00618 0.010094 0.010335 0.023953 0.010335 0.041858v0.052193c-9.8e-6 0.00122 1.69e-5 0.00241 0 0.00362 0.00315 0.00811 0.0062 0.016428 0.00982 0.024289 0.00382 0.00946 0.00905 0.017455 0.01602 0.024805 0.0089 0.00897 0.019696 0.015994 0.029972 0.023254 0.00889 0.00821 0.018492 0.010729 0.029456 0.01447 0.010692 0.00417 0.022273 0.00652 0.03359 0.00827 0.011351 0.00103 0.022024 0.00532 0.033073 0.00775 0.00771 0.0018 0.015375 0.00183 0.023254 0.00206h0.13953c0.00739-8.466e-4 0.014819-0.00212 0.02222-0.0031 0.00533-1.799e-4 0.00847-0.00267 0.013951-0.00465 0.03415-0.012311 0.058649-0.00381 0.06873 0.011885 0.014359 0.00466 0.020836 0.01547 0.019637 0.046509 0.014261 0.022355 0.017777 0.05085 0.013951 0.079065 0.012933 0.00143 0.025842 0.00254 0.038757 0.00414 0.061044 0.00695 0.12246 0.011943 0.18397 0.012401 0.079853 0.00365 0.15965 0.00827 0.23926 0.015502 0.23056 0.020934 0.20939 0.25394-0.021188 0.23306-0.076114-0.0069-0.15258-0.011517-0.22893-0.014986-0.066747-7.144e-4 -0.1332-0.00589-0.19947-0.013436-0.0093-0.00114-0.018624-0.00204-0.027905-0.0031 0.040959 0.053841 0.078793 0.11052 0.12041 0.16381-0.05658 0.042587-0.11856 0.077103-0.18138 0.11059h0.18087c0.081851 0 0.081851 0.082682 0 0.082682h-0.095085c0.00241 0.010546 0.00212 0.017666-0.00156 0.02222 0.058427-0.00439 0.1169-0.00941 0.17518-0.015502 0.019854-0.00254 0.030596-0.00522 0.03824-0.0031 0.00318-8.202e-4 0.00805-0.00271 0.0062-0.00156-0.00143 0.00108-0.00288 0.00161-0.00465 0.00206 0.011536 0.00449 0.01596 0.022037 0.035657 0.073381 0.00183 0.00479-0.00956 0.00419-0.01447 0.00568-0.00751 0.00228-0.015407 0.00319-0.023254 0.00414-0.00302 0.00337-0.00942 0.00313-0.016021 0.00206-0.010134 8.995e-4 -0.020241 0.00169-0.029972 0.00414-0.00982 0.00135-0.019645 0.00273-0.029456 0.00414 0.082024 0.00385 0.14447 0.047251 0.14056 0.17467-2.91e-4 0.0095-0.00246 0.01837-0.00517 0.026872 0.00661 0.021315 0.00811 0.041594 0.00568 0.060978 0.043541-0.011782 0.086415-0.021963 0.15555-0.03669 0.10367-0.022085 0.31634-0.065621 0.32866 0.13333 0.00488 0.078852-0.087588 0.13157-0.13126 0.1974-0.11104 0.051047-0.22342 0.098554-0.33641 0.14521 0.00212 5.556e-4 0.00415 0.00169 0.00568 0.00414 0.00468 0.00741 0.00638 0.00952 0.010853 0.016536 0.012883 0.00624 0.022315 0.022794 0.034106 0.053227 0.10473 0.16105 0.1391 0.20619 0.085783 0.23564 0.00274 0.01256-0.023074 0.013163-0.040308 0.017571-0.00868 0.00346-0.020106 0.0078-0.030489 0.011885-0.056643 0.025522-0.10834 0.049838-0.16691 0.078031-0.046302 0.022286-0.092828 0.045162-0.13901 0.067696-0.00398 0.00204-0.0079 0.00418-0.011885 0.0062 0.013822 0.019418 0.023738 0.035881 0.03359 0.052193 0.051352-0.037918 0.1001-0.055756 0.14211-0.057361 0.14118-0.00539 0.20748 0.16557 0.054777 0.31936 0.029647 0.017724 0.054526 0.048146 0.069246 0.099735 0.032854 0.11515-0.037919 0.17504-0.11059 0.22014 2.384e-4 0.00249-8.57e-5 0.00315 5.292e-4 0.00568 0.00169 0.01741-0.026977 0.023082-0.041341 0.033073-0.029904 0.020791-0.061627 0.037961-0.094051 0.05426 0.03413 0.018978 0.065981 0.042053 0.097152 0.066146 0.014859-0.00259 0.029159-0.00528 0.037207-0.00672 0.00389-6.879e-4 0.011322-0.00622 0.011885-0.00259 3.175e-4 0.00217 7.144e-4 0.00355 0.00103 0.00568 0.010319 0.00328 0.014647 0.016417 0.017052 0.037207 0.028451-0.00328 0.055355-0.00108 0.077515 0.015502 0.16124 0.12055 0.095719 0.23367 0.00982 0.32246 0.00962 0.00291 0.018801 0.00673 0.026872 0.013435 0.082852 0.06883 0.10693 0.12863 0.096118 0.18759 0.08064-0.016724 0.16148-0.032895 0.24236-0.048576 0.17896-0.091491 0.3597-0.17951 0.54415-0.25942 0.096547-0.033417 0.14693-0.059188 0.19534-0.060978 0.062242-0.0023 0.1208 0.034731 0.26872 0.14521 0.021452 0.016023-2.646e-4 0.053882-0.00568 0.080099-0.00646 0.031035-0.01765 0.059933-0.030489 0.08785 0.032673 0.035076 0.048508 0.079133 0.034107 0.14934-0.00616 0.030038-0.017812 0.055936-0.032556 0.079582 7.409e-4 0.00156 4.498e-4 0.00355 0.00103 0.00517 0.00911-4.498e-4 0.015669-0.00259 0.025839-0.00259 0.037487 6.85e-5 0.075147 0.011258 0.11007 0.027905 0.051639-0.14624 0.085704-0.29999 0.1571-0.4377 0.046019-0.050122 0.065027-0.078062 0.093017-0.079582 0.035995-0.00196 0.086584 0.039392 0.22738 0.13074 0.019775 0.01283 0.00409 0.047232 0.00362 0.070797-0.0013 0.06563-0.01057 0.1325-0.019122 0.19844 0.15322-0.10165 0.30009 0.00883 0.23719 0.1788 0.017005 0.00233 0.034052 0.00501 0.050643 0.0093 0.019894 0.00515 0.038651 0.01351 0.056844 0.024289 0.018624-0.016201 0.038333-0.031759 0.059428-0.044959 0.023474-0.01469 0.049609-0.024381 0.074414-0.03669 0.11298-0.038195 0.24338 0.028252 0.2682 0.14779 0.011853 0.05709 0.00262 0.11077-0.01292 0.1633 0.026741 0.0059 0.045624 0.01047 0.060978 0.01499 0.054262-0.10863 0.00196-0.05205 0.2806-0.09612 0.010774 0.01182 0.016976 0.0237 0.024805 0.03566-5.291e-4 -0.0054-0.00151-0.0107-0.00259-0.01602-0.00648-0.03191 0.00864-0.0494 0.025321-0.04857 0.012973 6.35e-4 0.026979 0.01239 0.032039 0.03721 0.00209 0.01027 0.00314 0.02059 0.00414 0.03101 9.261e-4 0.01049 0.00132 0.021 0.00156 0.03152 1.547e-4 0.0077-3.92e-5 0.01553 0 0.02325 2.88e-5 0.0062-5.6e-6 0.0124 0 0.0186 5.3e-6 0.0066-6e-7 0.01357 0 0.02015v0.11523c-7.54e-5 0.01255 5.556e-4 0.02522-5.292e-4 0.03772-0.00188 0.01008-0.0028 0.01989-0.00465 0.02997-0.0018 0.0096-0.00494 0.0188-0.00827 0.0279-3e-3 0.0077-0.00574 0.01558-0.00878 0.02325-0.00319 0.0078-0.00642 0.01534-0.010335 0.02274-0.00272 0.0066-0.00724 0.01274-0.0093 0.01964-0.00193 0.0088-0.00837 0.01599-0.011369 0.02429-0.0037 0.0093-0.00806 0.01859-0.01292 0.02739-0.00605 0.0093-0.010618 0.01934-0.01602 0.02894-0.00567 0.0092-0.010747 0.0188-0.016537 0.0279-0.00619 0.0098-0.013658 0.01859-0.021188 0.02739-0.00544 0.0068-0.012158 0.01284-0.017571 0.01964-0.00737 0.0094-0.013576 0.01934-0.020672 0.02894-0.00737 0.0086-0.01274 0.0185-0.019121 0.02791-0.00664 0.0087-0.013057 0.01753-0.019637 0.02635-0.00788 0.01038-0.016513 0.01984-0.025321 0.02946-0.00584 0.0061-0.010827 0.01357-0.016021 0.02015-0.00451 0.0077-0.012597 0.01242-0.018087 0.01912-0.00397 0.0041-0.00622 0.0078-0.00982 0.0124-0.00643 7e-3 -0.01251 0.01429-0.019121 0.02119-0.00497 0.0042-0.00863 0.0096-0.01292 0.01447-0.00592 0.0068-0.011933 0.01364-0.018603 0.01964-0.00694 5e-3 -0.012904 0.01075-0.018603 0.01706-0.00666 0.0086-0.015187 0.01505-0.022738 0.02274-0.00301 0.0039-0.00782 0.0065-0.010853 0.01033-0.011001 0.01365-0.022926 0.01944-0.033073 0.01964 3.704e-4 0.0024 6.614e-4 0.0048 0.00103 0.0072 0.00289 0.01629 0.00547 0.03264 0.00723 0.04909 0.00127 0.01207 0.00122 0.02404 0.00156 0.03617 2.122e-4 0.0081 4.498e-4 0.01629 5.292e-4 0.02429 2.09e-5 0.0032-9.8e-6 0.0061 0 0.0093 1.759e-4 0.05788-0.058218 0.05827-0.058395 5.29e-4 -9e-6 -0.0031 2.09e-5 -0.0062 0-0.0093-5.08e-5 -0.0076-3.175e-4 -0.01565-5.292e-4 -0.02325-2.91e-4 -0.01059-4.762e-4 -0.02097-0.00156-0.03152-7.409e-4 -0.0071-0.00209-0.01418-0.0031-0.02119-0.10698 0.15274-0.1935 0.1078-0.32504-0.02635-0.013724 0.0031-0.027477 0.0053-0.041341 0.0072-0.00565 0.01194-0.012449 0.02449-0.020672 0.03772-0.076972 0.09958-0.18591 0.1561-0.31109 0.09663-0.011938-0.0094-0.024593-0.01862-0.03669-0.0279-0.02664 0.0099-0.052885 0.01966-0.079582 0.02842-0.071659 0.02095-0.15513 0.04255-0.22841 0.01395-0.020127-0.0079-0.038586-0.01924-0.057878-0.02894-0.011224-0.0096-0.022365-0.01934-0.03359-0.02894-0.060683-0.05197-0.061851-0.08113-0.033073-0.0987-0.04256-0.02753-0.080337-0.08049-0.10025-0.16071-0.00353-0.0031-0.00738-0.0056-0.010853-0.0088-0.019161 0.02744-0.038859 0.05439-0.060978 0.07958-0.00461 0.0054-0.00886 0.01107-0.013435 0.01654-0.075212 0.10542-0.14874 0.21222-0.22583 0.31626-0.00743 0.0095-0.014388 0.01937-0.021704 0.02894h6.4724v-12.23zm0.31419 6.3779c-3.969e-4 8.732e-4 -0.00185 0.00417-0.00206 0.00465 8.202e-4 -0.00156 0.00177-0.00308 0.00259-0.00465zm-0.31419 0.00723v0.025839c0.00167-0.0078 0.00387-0.015483 0.00569-0.023254-0.00185-7.673e-4 -0.00364-0.0018-0.00569-0.00259zm0.085783 0.010335c-0.00161 0.00588-0.00351 0.0117-0.00517 0.017571 7.938e-4 -4.498e-4 0.00177-6.614e-4 0.00259-0.00103-5.24e-5 -0.00385 0.00114-0.010036 0.00259-0.016536zm0.50695 0.076998c-0.00103 0.0023-0.00246 0.00445-0.00362 0.00672v5.292e-4c4.498e-4 7.144e-4 0.00114 0.00132 0.00156 0.00206 7.409e-4 -0.00309 0.00132-0.0062 0.00206-0.0093zm-0.31884 0.096635c-6.085e-4 6.085e-4 -9.26e-4 0.00146-0.00156 0.00206-0.00274 0.00172-0.00559 0.00339-0.00827 0.00517-5.821e-4 3.705e-4 0.00794-0.00477 0.00775-0.00414-0.00122 0.00425-0.00269 0.00791-0.00465 0.011885 0.00217-0.00504 0.0045-0.00998 0.00672-0.014986zm-0.00672 0.014986c-0.00146 0.00295-0.00319 0.00584-0.00465 0.00878 3.175e-4 -5.9e-5 7.144e-4 4.85e-5 0.00103 0 0.00124-0.00292 0.00235-0.00587 0.00362-0.00878zm0.059945 0.18293c5.556e-4 0.00132 0.00138 0.00243 0.00206 0.00362 4.498e-4 -6.35e-4 5.821e-4 -0.00143 0.00103-0.00206-9.79e-4 -4.498e-4 -0.00196-8.996e-4 -0.0031-0.00156zm0.017571 0.31523c-0.00185 7.409e-4 -0.00373 0.00106-0.00569 0.00156 0.00111 0.00391 0.00225 0.00784 0.0031 0.011885 8.202e-4 -0.00449 0.0018-0.00894 0.00259-0.013436zm-0.22376 0.26045c4.763e-4 -2.911e-4 -0.00222 4.498e-4 -0.00362 0.00103 0.00228 0.00103 0.00444 0.00212 0.00672 0.0031 2.384e-4 -0.00138 3.175e-4 -0.00273 5.292e-4 -0.00414-0.00148 2.278e-4 -0.00321 5.556e-4 -0.00362 5.292e-4zm1.1369 1.4521c-0.031551 0.01298-0.062965 0.026416-0.094568 0.039274 9.74e-5 0.0023-9.6e-5 0.00433 0 0.00672 0.010806-0.00412 0.021781-0.00767 0.032556-0.011885 0.00367-0.0013 0.00588-0.00188 0.0093-0.0031 0.0089-0.00402 0.017224-0.00833 0.026355-0.012401 0.00799-0.00356 0.017333-0.011951 0.026355-0.018603zm1.1245 1.6195c-0.00297-6.35e-4 -0.00682 0.00135-0.0062 0.00259 0.0019 0.00378 0.00452 0.00714 0.00672 0.010853 3.175e-4 -7.143e-4 7.144e-4 -0.00135 0.00103-0.00206 0.00342-0.00786 0.00143-0.010724-0.00156-0.011369zm-2.2422 0.32246c-8.466e-4 5.292e-4 -0.00175 0.00101-0.00259 0.00156v5.291e-4c8.731e-4 -6.879e-4 0.00172-0.00138 0.00259-0.00206zm-0.12609 0.14883c-0.00467 0.00217-0.00926 0.00455-0.013954 0.00672v0.17208c0.02727 0.0052 0.054258 0.01085 0.081649 0.0155-0.00487-0.0033-0.00968-0.0071-0.013952-0.01137-0.037117-0.03672-0.035144-0.09321-0.033073-0.14986-0.0061-7.65e-5 -0.012457-0.00241-0.018603-0.00775-0.00438-0.00381-0.00339-0.011007-0.00517-0.016537 0.00122-0.00278 0.00198-0.00597 0.0031-0.00878zm4.0163 0.33796c-0.015301-4.23e-4 -0.021984 0.0043 0.00982 1e-3 -0.00326-6.08e-4 -0.00682-1e-3 -0.00982-1e-3zm0.33383 0.16898c-5.292e-4 8.73e-4 -0.00103 0.0017-0.00156 0.0026 0.00212 2.91e-4 0.00432 2.91e-4 0.0062 5.29e-4 7.46e-5 -3.7e-4 4.498e-4 -9.52e-4 5.291e-4 -1e-3 -0.00169-6.61e-4 -0.00331-0.0013-0.00517-0.0021zm-4.3641 0.0093v0.82837h1.9575v-5.29e-4c0.00788-0.02298 0.033565-0.05314 0.073897-0.10749-0.031132-0.01017-0.059272-0.02841-0.079582-0.05891-0.033571-0.05042-0.04197-0.1148-0.05116-0.17467-0.00289-0.01879-7.1e-6 -0.04447 0.00465-0.07183-0.069066 0.0062-0.16909 0.01241-0.20516-0.01033-0.13924-0.08776-0.17759-0.14305-0.13798-0.24133-0.096989 0.06018-0.19452 0.12013-0.29197 0.17932-0.095362 0.05646-0.1127 0.07064-0.20877 0.11369-0.12019 0.05386-0.17076 0.06946-0.30282-0.1018-0.043789-0.05678 0.032859-0.21988 0.05271-0.27182 0.00662-0.01445 0.013158-0.02891 0.019637-0.04341-0.047881 0.02698-0.096424 0.05298-0.14366 0.08113-0.042257 0.02271-0.021876 0.01298-0.059945 0.03049-0.17321 0.07967-0.29398 4.77e-4 -0.30437-0.10077-0.055385-0.0066-0.11068-0.01425-0.16536-0.02222-0.052624-0.0086-0.10509-0.01798-0.15761-0.02791zm4.0726 0.42943c-7.409e-4 0.0012-0.00132 0.0024-0.00206 0.0036 0.00132-0.0011 0.00273-2e-3 0.00414-0.0031-7.408e-4 -1.23e-4 -0.00135-3.71e-4 -0.00206-5.29e-4zm-1.0759 0.06408c-0.00673 0.01346-0.014946 0.0238-0.023254 0.03411 0.037946-0.0027 0.075019-0.0056 0.10387-0.01085-0.020518-0.0018-0.042039-6e-3 -0.066146-0.01499-0.0057-0.0021-0.00938-0.0057-0.01447-0.0083z" fill="#f00"/>
</clipPath>
</defs>
<g fill="#fff" stroke-width="232.63">
<path d="m1.2594 0.47026h0.044958-0.044958zm3.0582 0.88315c-0.05176-0.0061-0.10185 0.0022332-0.13281 0.034623-0.12813 0.13425-0.26847 0.22505-0.26975 0.46767-0.0021 0.40064-0.0092492 0.56017-0.076481 0.82166-0.058323 0.22685-0.18154 0.72421-0.25942 0.94981-0.21173 0.61333-0.53775 1.2486-0.61598 1.8061v-0.0041341l-0.64596 0.57257c-0.36114 0.22643-1.2179 0.17809-1.7177 0.20774-0.30659 0.018185-0.54722 0.40027-0.54622 0.76119l5.1676e-4 0.1912 0.010852 4.0085c0.00127 0.34503 0.226 0.6354 0.52503 0.67851l2.2428 0.32453c0.030023 0.01046 0.060752 0.017224 0.092501 0.018604l0.041858 0.002067c0.49229 0.20855 1.7182 0.39983 3.0768 0.47956 1.087 0.0632 1.0054 0.005186 1.5823-0.088883 0.00323-5.25e-4 0.005808-0.001034 0.0067179-0.001034 0.00123 2e-6 0.0034309 4e-6 0.0046509 0 0.08728-7.36e-4 0.1614-0.024205 0.2434-0.059945 0.12902-0.03603 0.21594-0.074504 0.24701-0.11886 0.17359-0.17255 0.29533-0.34249 0.37052-0.68833 0.01245-0.27234 0.0088476-0.44093-0.065112-0.66352 0.23394-0.13963 0.46763-0.5311 0.46871-1.1172-1.6e-4 -0.36597-0.12544-0.70805-0.33486-0.91312 0.20922-0.20487 0.33447-0.54641 0.33486-0.91209 1.85e-4 -0.39948-0.14842-0.76794-0.38912-0.96325 0.09203-0.31837 0.11475-0.58518 0.065629-0.77256-0.0606-0.31767-0.22595-0.3834-0.33073-0.45475-0.05202-0.03543-0.24481-0.11371-0.61133-0.1974-0.43976-0.047195-0.59858-0.059418-0.91157-0.067179l-1.6521-0.082682c-0.047936-0.25914-0.048041-0.38355 0.01602-0.68471 0.022205-0.10438 0.0348-0.080105 0.10852-0.51831l0.034106-0.2527 0.023771-0.28784c0.00905-0.55337 0.025256-0.81564-0.10387-1.4185-0.026658-0.12446-0.10165-0.34014-0.14986-0.45372-0.18257-0.43008-0.29474-0.4188-0.5426-0.54932-0.039787-0.02095-2.516e-4 -1.803e-4 -0.14108-0.05426zm-2.6014 0.22686h0.034106-0.034106zm2.7306 1.0005c0.093283-0.01353 0.1964 0.036666 0.23203 0.12764 0.063197 0.16139 0.090544 0.26212 0.068213 0.47956 0.013265 0.13718 0.0079618 0.25527-5.168e-4 0.36639l-0.075448 0.45372c-0.0151 0.054267-0.030257 0.10717-0.044958 0.16588-0.044437 0.1598-0.074759 0.27134-0.11731 0.40928-0.047521 0.21774-0.13348 0.48361-0.14986 0.57154-0.015769 0.084633-0.013539 0.21954 0 0.36639-0.019101 0.037513-0.036198 0.076085-0.043925 0.11472-0.010814 0.054071-0.012982 0.10987-0.023771 0.16381 0.022746 0.032487-0.019027 0.030116-0.023254 0.047026-0.00284 0.011345 0.0037 0.024048 0 0.03514-0.00445 0.013332-0.019847 0.020989-0.023254 0.034623-0.0023299 0.00936-0.0085099 0.22897 0 0.24598 0.0048 0.0095999 0.027702 0.053435 0.03514 0.058394 0.013313 0.0088749 0.020136 0.0062031 0.022738 0.006718l0.082166-0.49558c0.036434 0.2318 0.095371 0.45603 0.15968 0.54674l2.1854 0.12196c0.23096 0.00654 0.12715 0.0077954 0.45165 0.047542 0.27046 0.070508 0.33118 0.084774 0.45475 0.13694 0.10337 0.043641 0.13977 0.053637 0.22014 0.22738 0.013677 0.059567 0.020026 0.1288 0.018604 0.20619-0.00235 0.1277-0.02541 0.27794-0.067696 0.44493 0.17762 0.16453 0.29521 0.33578 0.29507 0.67231-3.01e-4 0.30806-0.10038 0.73537-0.25476 0.90795 0.15454 0.17275 0.33319 0.46937 0.33331 0.77773-7.96e-4 0.49378-0.25887 0.81523-0.4315 0.93276 0.054601 0.18752-6.306e-4 0.2398-0.0098185 0.46922-0.035244 0.18507-0.084274 0.30999-0.14831 0.41393-0.036769 0.059689-0.078338 0.11285-0.12506 0.16588-0.022933 0.03736-0.086697 0.069385-0.1819 0.099735-0.060507 0.03011-0.11491 0.05055-0.17932 0.05116-8.969e-4 6e-6 -0.0027074 2e-6 -0.0036174 0-6.726e-4 0-0.0027876-4.42e-4 -0.0051676 0-0.42572 0.0793-0.69445-0.017537-1.4965-0.070797-1.0025-0.06716-1.9622-0.23411-2.3254-0.40979l-0.031006-0.002067c-0.023429-0.0012-0.046576-0.006603-0.06873-0.015503l-1.6588-0.33331c-0.22066-0.036311-0.5613 0.016184-0.56224-0.2744l0.011886-3.5145c-7.392e-4 -0.30405 0.21612-0.30094 0.44235-0.31626 0.11817-8e-3 0.53426-0.027734 0.6842-0.07338 0.318-0.096817 0.57079-0.12668 0.75189-0.25632l0.58756-0.32246-0.0036173 0.10645c0.05773-0.46968 0.46595-1.7194 0.62218-2.236 0.057468-0.19005 0.21018-0.57784 0.25321-0.76895 0.049611-0.22028 0.054314-0.2642 0.11007-0.58498 0.0045-0.11868-0.014603-0.29428 0.03359-0.30127zm-0.14418 3.6468-0.0051677 0.031006c0.0053785-0.025504 0.0075385-0.030221 0.0051677-0.031006zm-1.3395-0.49764c3e-3 0.010327 0.0068891 0.019369 0.010852 0.027905h-0.010852v-0.027905z" clip-path="url(#b)" style="paint-order:fill markers stroke"/>
<path d="m4.9239-0.97488h0.045456zm3.0586 0.88325c-0.05176-0.0061-0.10185 0.0023-0.1328 0.03469-0.12813 0.13425-0.26841 0.22508-0.26968 0.4677-0.0021 0.40064-0.00942 0.5599-0.076652 0.82138-0.058323 0.22685-0.18149 0.72435-0.25937 0.94995-0.21173 0.61333-0.53766 1.2485-0.61589 1.806v-0.00409l-0.64619 0.57243c-0.36114 0.22643-1.2178 0.1785-1.7175 0.20815-0.30659 0.018185-0.54737 0.40026-0.54637 0.76118l5.277e-4 0.19118 0.011056 4.0086c0.00127 0.34503 0.22595 0.63542 0.52498 0.67854l2.2425 0.32447c0.030023 0.01046 0.060945 0.01698 0.092694 0.01836l0.041891 2e-3c0.49229 0.20855 1.7182 0.39984 3.0768 0.47957 1.087 0.0632 1.0051 0.0053 1.5821-0.08877 0.0032-5.25e-4 0.0062-1e-3 0.0071-1e-3 0.0012 3e-6 0.0032 5e-6 0.0045 0 0.08728-7.35e-4 0.16133-0.02446 0.24332-0.0602 0.12902-0.03603 0.21581-0.07402 0.24689-0.11837 0.17359-0.17255 0.2956-0.34289 0.37079-0.68873 0.01245-0.27234 0.0089-0.44064-0.06506-0.66323 0.23394-0.13963 0.46774-0.53119 0.46882-1.1173-1.6e-4 -0.36597-0.1257-0.70807-0.33513-0.91314 0.20922-0.20487 0.33473-0.54651 0.33513-0.9122 1.85e-4 -0.39948-0.1488-0.76791-0.3895-0.96321 0.09203-0.31837 0.11508-0.58502 0.06596-0.77241-0.0606-0.31767-0.2259-0.38372-0.33067-0.45508-0.05202-0.03543-0.2449-0.11323-0.61143-0.19693-0.43976-0.047195-0.5988-0.059582-0.9118-0.067343l-1.6522-0.082649c-0.047936-0.25914-0.048021-0.38349 0.01604-0.68466 0.022205-0.10438 0.035018-0.080129 0.10874-0.51834l0.033873-0.25305 0.024065-0.28774c0.00905-0.55337 0.024844-0.81541-0.10428-1.4183-0.026658-0.12446-0.10152-0.34048-0.14974-0.45406-0.18257-0.43008-0.29478-0.4188-0.54264-0.54932-0.039787-0.02095 0 0-0.14083-0.05408zm-2.6013 0.22689h0.033869zm2.7304 1.0006c0.093283-0.01353 0.19638 0.03633 0.23201 0.1273 0.063197 0.16139 0.090661 0.26239 0.06833 0.47982 0.017701 0.18306 0.00419 0.33839-0.0089 0.47807-0.019953 0.213-0.070332 0.34041-0.11228 0.50792-0.044437 0.1598-0.074852 0.27148-0.1174 0.40942-0.047521 0.21774-0.13335 0.4835-0.14974 0.57143-0.047271 0.25371 0.059663 0.94585 0.18579 1.1237l2.185 0.12183c0.23096 0.00654 0.12738 0.00821 0.45189 0.047957 0.27046 0.070508 0.33099 0.084538 0.45456 0.13671 0.10337 0.043641 0.14012 0.053801 0.22048 0.22754 0.01368 0.059567 0.01972 0.12868 0.0183 0.20607-0.0023 0.1277-0.02503 0.27792-0.06732 0.44492 0.17762 0.16453 0.29516 0.33588 0.29502 0.67241-3.01e-4 0.30806-0.10054 0.73553-0.25492 0.90811 0.15454 0.17275 0.33323 0.46914 0.33335 0.77751-7.96e-4 0.49378-0.25876 0.81508-0.43139 0.9326 0.0546 0.18752-6.12e-4 0.23994-0.0098 0.46936-0.03524 0.18507-0.08444 0.31022-0.14848 0.41416-0.03677 0.05969-0.07843 0.11237-0.12515 0.1654-0.02293 0.03736-0.08662 0.06964-0.18182 0.09999-0.06051 0.03011-0.11475 0.05041-0.17915 0.05102-8.96e-4 6e-6 -0.0027 2e-6 -0.0036 0-6.72e-4 0-3e-3 -4.42e-4 -0.0053 0-0.42572 0.0793-0.69428-0.01737-1.4964-0.07063-1.0025-0.06716-1.9623-0.23414-2.3256-0.40983l-0.031196-2e-3c-0.023429-0.0012-0.046476-0.0065-0.06863-0.0154l-1.6589-0.33369c-0.22066-0.036311-0.56124 0.016191-0.56218-0.2744l0.011918-3.5146c-7.392e-4 -0.30405 0.21611-0.30047 0.44235-0.31579 0.11817-8e-3 0.53445-0.028148 0.68438-0.073795 0.318-0.096817 0.57086-0.12665 0.75196-0.25628l0.58726-0.32211-0.00357 0.10612c0.05773-0.46968 0.46607-1.719 0.62231-2.2357 0.057468-0.19005 0.21029-0.578 0.25333-0.76911 0.049611-0.22028 0.054032-0.26447 0.10979-0.58524 0.0045-0.11868-0.014499-0.29392 0.033693-0.30091zm-1.0155 3.7848v0.023469-0.023469s0.00221 0.00871 0 0zm-0.46793-0.63568c3e-3 0.010327 0.00673 0.019014 0.010693 0.02755h-0.010693z" clip-path="url(#a)" style="paint-order:fill markers stroke"/>
</g>
</svg>
