<?xml version="1.0" encoding="UTF-8"?>
<svg width="48" height="48" version="1.1" viewBox="0 0 12.7 12.7" xmlns="http://www.w3.org/2000/svg">
<path d="m1.0048 4.3796c-0.22422 0.207-0.22627 0.54281 9.217e-4 0.74703l4.9386 4.4393c0.00253 0.00227 0.00552 0.00392 0.00805 0.00616 0.00244 0.00232 0.00422 0.0051 0.00672 0.0074 0.22473 0.20653 0.58615 0.20553 0.81037-0.00148l2.8341-2.6163 2.0916-1.8999c0.22603-0.20532 0.22448-0.53989-2.51e-4 -0.74642-0.22473-0.20653-0.58501-0.20447-0.81104 8.492e-4l-2.0916 1.8999-2.4297 2.243-4.5474-4.0797c-0.22741-0.20402-0.58615-0.20676-0.81037 2.309e-4z" fill="#fff" stroke-width="125.17" style="paint-order:fill markers stroke"/>
</svg>