<?xml version="1.0" encoding="UTF-8"?>
<svg width="48" height="48" version="1.1" viewBox="0 0 12.7 12.7" xmlns="http://www.w3.org/2000/svg">
<path d="m6.35 0.34985a6 6 0 0 0-6.0002 6.0002 6 6 0 0 0 6.0002 6.0002 6 6 0 0 0 6.0002-6.0002 6 6 0 0 0-6.0002-6.0002zm0 1.5002a4.5 4.5 0 0 1 4.5 4.5 4.5 4.5 0 0 1-4.5 4.5 4.5 4.5 0 0 1-4.5-4.5 4.5 4.5 0 0 1 4.5-4.5zm-0.0077515 0.98134c-0.1861 0-0.36514 0.013479-0.53692 0.040308-0.17178 0.026829-0.32758 0.060009-0.46715 0.10025-0.13957 0.03689-0.25946 0.07914-0.35967 0.12609-0.10021 0.043597-0.16833 0.082219-0.20412 0.11576-0.035788 0.033536-0.059027 0.077084-0.069763 0.13074s-0.01602 0.13894-0.01602 0.25632c0 0.11402 0.0036945 0.20786 0.010852 0.28164 0.010736 0.073779 0.022892 0.13081 0.037207 0.17105 0.014315 0.040243 0.032271 0.069015 0.053744 0.085783 0.021473 0.013414 0.044712 0.020154 0.069763 0.020154 0.035788 0 0.08596-0.017107 0.15038-0.050643 0.067997-0.033536 0.15249-0.070344 0.2527-0.11059 0.10021-0.040243 0.2201-0.077052 0.35967-0.11059s0.30014-0.050126 0.48266-0.050126c0.20041 0 0.37417 0.026441 0.5209 0.080098 0.15031 0.050304 0.27389 0.12444 0.37052 0.22169 0.10021 0.097254 0.17362 0.21261 0.22014 0.34675 0.050103 0.13414 0.074931 0.28189 0.074931 0.44287 0 0.1442-0.021134 0.28029-0.064079 0.40773-0.039367 0.12744-0.1038 0.23786-0.19327 0.33176-0.089469 0.0939-0.20408 0.16933-0.34365 0.22634-0.13599 0.057011-0.29918 0.085783-0.48886 0.085783h-0.074931c-0.078733 0-0.14686 0.0080368-0.20412 0.024805-0.05726 0.013414-0.10533 0.040372-0.14469 0.080615-0.035788 0.040243-0.061132 0.093642-0.075448 0.16071s-0.019598 0.15468-0.01602 0.262l0.048576 1.187c0.0035788 0.036889 0.015734 0.066959 0.037207 0.090434 0.021473 0.023475 0.055795 0.041879 0.10232 0.055294 0.046524 0.013414 0.10885 0.023782 0.18759 0.030489 0.082312 0.0033536 0.18266 0.0046509 0.30076 0.0046509 0.1861 0 0.32764-0.014776 0.42426-0.044958 0.10021-0.030182 0.15197-0.075544 0.15555-0.13591l0.042892-0.98082c0.25767-0.026829 0.49217-0.088781 0.70332-0.18604 0.21473-0.097254 0.39694-0.2266 0.54725-0.38757 0.15389-0.16097 0.27219-0.35227 0.3545-0.57361 0.085891-0.22134 0.12867-0.46915 0.12867-0.74414 0-0.26493-0.044372-0.51689-0.13384-0.75499-0.089469-0.2381-0.23101-0.44911-0.42426-0.63355-0.18968-0.18445-0.43474-0.33038-0.73536-0.4377-0.30062-0.11067-0.66188-0.16588-1.0842-0.16588zm0.032039 5.5537c-0.15031 0-0.27389 0.012962-0.37052 0.039791-0.096627 0.023475-0.17532 0.065726-0.23616 0.12609-0.05726 0.057011-0.098455 0.13426-0.12351 0.23151-0.021473 0.0939-0.032039 0.21107-0.032039 0.35192 0 0.1375 0.010567 0.25337 0.032039 0.34727 0.025052 0.0939 0.066246 0.16933 0.12351 0.22634 0.060839 0.057011 0.13953 0.096931 0.23616 0.12041 0.096627 0.026829 0.22021 0.040308 0.37052 0.040308 0.14315 0 0.26304-0.013479 0.35967-0.040308 0.10021-0.023475 0.1789-0.063395 0.23616-0.12041 0.060839-0.057011 0.10203-0.13244 0.12351-0.22634 0.025051-0.0939 0.037724-0.20977 0.037724-0.34727 0-0.14085-0.012672-0.25802-0.037724-0.35192-0.021473-0.097254-0.062668-0.1745-0.12351-0.23151-0.05726-0.060365-0.13596-0.10262-0.23616-0.12609-0.096627-0.026829-0.21652-0.039791-0.35967-0.039791z" fill="#fff" stroke-width="208.21" style="paint-order:fill markers stroke"/>
</svg>
