<?xml version="1.0" encoding="UTF-8"?>
<svg width="48" height="48" version="1.1" viewBox="0 0 12.7 12.7" xmlns="http://www.w3.org/2000/svg">
<path d="m6.35 1.3498a5 5 0 0 0-5.0002 5.0002 5 5 0 0 0 5.0002 5.0002 5 5 0 0 0 5.0002-5.0002 5 5 0 0 0-5.0002-5.0002zm0 1.0005a4 4 0 0 1 3.9998 3.9998 4 4 0 0 1-3.9998 3.9998 4 4 0 0 1-3.9998-3.9998 4 4 0 0 1 3.9998-3.9998zm-0.17053 0.81442c-0.28691 0-0.5178 0.22355-0.5178 0.50126v0.37465c0 0.27772 0.23088 0.50126 0.5178 0.50126h0.34106c0.28691 0 0.5178-0.22355 0.5178-0.50126v-0.37465c0-0.27772-0.23088-0.50126-0.5178-0.50126h-0.34106zm0.0894 1.6872c-0.33622 0-0.6072 0.27046-0.6072 0.60668v3.5838c0 0.33622 0.27098 0.60668 0.6072 0.60668h0.16226c0.33622 0 0.6072-0.27046 0.6072-0.60668v-3.5838c0-0.33622-0.27098-0.60668-0.6072-0.60668h-0.16226z" fill="#fff" stroke-width="186.06" style="paint-order:fill markers stroke"/>
</svg>
