<?xml version="1.0" encoding="UTF-8"?>
<svg width="48" height="48" version="1.1" viewBox="0 0 12.7 12.7" xmlns="http://www.w3.org/2000/svg">
<path d="m3.1315 0.093544h0.045456zm2.9965 0.67241c-0.05176-0.006101-0.10185 0.002251-0.1328 0.034692-0.12813 0.13425-0.2064 0.43591-0.20767 0.67854-0.0021042 0.40064-0.0094172 0.5599-0.076652 0.82138-0.058323 0.22685-0.18149 0.72435-0.25937 0.94995-0.21173 0.61333-0.53766 1.2485-0.61589 1.806v-0.00409l-0.64619 0.57243c-0.36114 0.22643-1.2178 0.1785-1.7175 0.20815-0.30659 0.018185-0.54737 0.40026-0.54637 0.76118l5.277e-4 0.19118 0.011056 4.0086c0.00127 0.34503 0.22595 0.63542 0.52498 0.67854l2.2425 0.32447c0.030023 0.01046 0.060945 0.01698 0.092694 0.01836l0.041891 2e-3c0.49229 0.20855 1.7182 0.39984 3.0768 0.47957 1.087 0.0632 1.0051 0.0053 1.5821-0.08877 0.00323-5.25e-4 0.00621-1e-3 0.00712-1e-3 0.00123 2e-6 0.00323 4e-6 0.00445 0 0.08728-7.36e-4 0.16133-0.02446 0.24332-0.0602 0.12902-0.03603 0.21581-0.07402 0.24689-0.11837 0.17359-0.17255 0.29561-0.34289 0.37079-0.68873 0.01245-0.27234 0.0089-0.44064-0.06506-0.66323 0.23394-0.13963 0.46774-0.53119 0.46882-1.1173-1.6e-4 -0.36597-0.1257-0.70807-0.33513-0.91314 0.20922-0.20487 0.33473-0.54651 0.33513-0.9122 1.85e-4 -0.39948-0.1488-0.76791-0.3895-0.96321 0.092032-0.31837 0.11508-0.58502 0.065956-0.77241-0.060598-0.31767-0.2259-0.38372-0.33067-0.45508-0.052023-0.03543-0.2449-0.11323-0.61143-0.19693-0.43976-0.047195-0.5988-0.059582-0.9118-0.067343l-1.6521-0.082649c-0.047936-0.25914-0.048021-0.38349 0.01604-0.68466 0.022205-0.10438 0.035018-0.080129 0.10874-0.51834l0.033873-0.25305 0.024065-0.28774c0.0090452-0.55337 0.024844-0.81541-0.10428-1.4183-0.026658-0.12446-0.10152-0.34047-0.14974-0.45406-0.18257-0.43008-0.4064-0.60897-0.60465-0.76016-0.035754-0.027267-0.089065-0.047986-0.14083-0.054079zm-2.5393 0.43773h0.033869zm2.7304 1.0006c0.093283-0.013525 0.19638 0.036331 0.23201 0.1273 0.063197 0.16139 0.090661 0.26239 0.06833 0.47983 0.017701 0.18306 0.00419 0.33839-0.0089 0.47807-0.019953 0.213-0.070332 0.34041-0.11228 0.50792-0.044437 0.1598-0.074852 0.27148-0.1174 0.40942-0.047521 0.21774-0.13335 0.4835-0.14974 0.57143-0.047271 0.25371 0.059663 0.94585 0.18579 1.1237l2.185 0.12183c0.23096 0.00654 0.12738 0.00821 0.45189 0.047957 0.27046 0.070508 0.33099 0.084538 0.45456 0.13671 0.10337 0.043641 0.14012 0.053801 0.22048 0.22754 0.013677 0.059567 0.019723 0.12868 0.0183 0.20607-0.00235 0.1277-0.025035 0.27792-0.067321 0.44492 0.17762 0.16453 0.29516 0.33588 0.29502 0.67241-3.01e-4 0.30806-0.10054 0.73553-0.25492 0.90811 0.15454 0.17275 0.33323 0.46914 0.33335 0.77751-7.96e-4 0.49378-0.25876 0.81508-0.43139 0.9326 0.054601 0.18752-6.121e-4 0.23994-0.0098 0.46936-0.035244 0.18507-0.084443 0.31022-0.14848 0.41416-0.036769 0.05969-0.07843 0.11237-0.12515 0.1654-0.022933 0.03736-0.086621 0.06964-0.18182 0.09999-0.060507 0.03011-0.11475 0.05041-0.17915 0.05102-8.969e-4 6e-6 -0.00266 2e-6 -0.00357 0-6.726e-4 0-0.00297-4.42e-4 -0.00535 0-0.42572 0.0793-0.69428-0.01737-1.4964-0.07063-1.0025-0.06716-1.9623-0.23414-2.3256-0.40983l-0.031196-2e-3c-0.023429-0.0012-0.046476-0.0065-0.06863-0.0154l-1.6589-0.33369c-0.22066-0.036311-0.56124 0.016191-0.56218-0.2744l0.011918-3.5146c-7.392e-4 -0.30405 0.21611-0.30047 0.44235-0.31579 0.11817-0.0080037 0.53445-0.028148 0.68438-0.073795 0.318-0.096817 0.57086-0.12665 0.75196-0.25628l0.58726-0.32211-0.0035703 0.10612c0.05773-0.46968 0.46607-1.719 0.62231-2.2357 0.057468-0.19005 0.21029-0.578 0.25333-0.76911 0.049611-0.22028 0.054032-0.26447 0.10979-0.58524 0.0045017-0.11868-0.014499-0.29392 0.033693-0.30091zm-1.0155 3.7848v0.023469-0.023469s0.00221 0.00871 0 0zm-0.46793-0.63568c3e-3 0.010327 0.00673 0.019014 0.010693 0.02755h-0.010693z" fill="#fff" stroke-width="232.63" style="paint-order:fill markers stroke"/>
</svg>