<?xml version="1.0" encoding="UTF-8"?>
<svg width="48" height="48" version="1.1" viewBox="0 0 12.7 12.7" xmlns="http://www.w3.org/2000/svg">
<path d="m3.1316 0.093534h0.045475-0.045475zm2.9967 0.67231c-0.05176-0.006101-0.10185 0.0021822-0.13281 0.034623-0.12813 0.13425-0.20646 0.43589-0.20774 0.67851-0.0021042 0.40064-0.0097629 0.56017-0.076998 0.82166-0.058323 0.22685-0.18154 0.72421-0.25942 0.94981-0.21173 0.61333-0.53724 1.2486-0.61547 1.8061v-0.0041341l-0.64647 0.57257c-0.36114 0.22643-1.2174 0.1786-1.7172 0.20826-0.30659 0.018185-0.54774 0.40027-0.54674 0.76119l5.167e-4 0.1912 0.011369 4.0085c0.00127 0.34503 0.226 0.6354 0.52503 0.67851l2.2422 0.32453c0.030023 0.01046 0.060752 0.016706 0.092501 0.018086l0.042375 0.002068c0.49229 0.20855 1.7177 0.39983 3.0763 0.47956 1.087 0.0632 1.0054 0.005186 1.5823-0.088884 0.00323-5.25e-4 0.0063247-0.001033 0.0072347-0.001033 0.00123 2e-6 0.0029141 4e-6 0.0041341 0 0.08728-7.36e-4 0.1614-0.024205 0.2434-0.059945 0.12902-0.03603 0.21594-0.073988 0.24701-0.11834 0.17359-0.17255 0.29533-0.343 0.37052-0.68885 0.012067-0.26396 0.008102-0.43073-0.059427-0.64337 7.47e-4 -0.008504 0.001938-0.0167 0.002583-0.025322 0.19175-0.11905 0.37981-0.40834 0.43977-0.83354 0.050327-0.13788 0.091984-0.29773 0.091984-0.38241 0-0.21416-0.13772-0.52289-0.31988-0.71727l-0.0863-0.091984c0.20922-0.20487 0.33499-0.54641 0.33538-0.91209 1.73e-4 -0.37335-0.13117-0.71775-0.34468-0.92087l0.001034-0.0056844c0.041787-0.20147 0.048689-0.29167 0.027388-0.38706 0.022106-0.16443 0.022363-0.30929-0.007234-0.4222-0.060598-0.31767-0.22595-0.3834-0.33073-0.45475-0.052022-0.03543-0.24481-0.11319-0.61133-0.19689-0.43976-0.047195-0.59909-0.059934-0.91209-0.067696l-1.6521-0.082166c-0.047936-0.25914-0.048042-0.38355 0.01602-0.68471 0.022205-0.10438 0.035317-0.080105 0.10904-0.51831l0.03359-0.25321 0.024288-0.28784c0.0090452-0.55337 0.02474-0.81512-0.10439-1.418-0.026658-0.12446-0.10165-0.34065-0.14986-0.45424-0.18257-0.43008-0.40636-0.60897-0.60461-0.76016-0.035754-0.027267-0.0888-0.048168-0.14056-0.05426zm-2.5394 0.4377h0.03359-0.03359zm1.247 4.1501c3e-3 0.010327 0.0063723 0.018852 0.010335 0.027388h-0.010335v-0.027388z" fill="#fff" stroke-width="232.63" style="paint-order:fill markers stroke"/>
</svg>
