<?xml version="1.0" encoding="UTF-8"?>
<svg width="159mm" height="40mm" version="1.1" viewBox="0 0 159 40" xmlns="http://www.w3.org/2000/svg">
<g>
<g transform="translate(0 -1.2998)">
<path d="m9.058 3.569v35.462c1.2678-0.27745 2.8222-0.54704 4.6489-0.80633v-21.674l8.5144 20.735c2.0185-0.183 4.1892-0.35623 6.499-0.51866v-33.197h-4.6494v24.919l-10.144-24.919zm24.954 0v32.864c5.7301-0.33608 12.21-0.88338 18.981-1.0824v-5.0927l-13.977 0.72559-1e-6 -8.8153 10.101-0.06887v-5.6675l-10.036-0.06887-0.06505-6.4815h13.373v-6.3126zm21.32 0v6.3126h7.3542v25.519c1.6572-0.02723 3.3263-0.05024 5.0043-0.06899v-25.45h7.3376v-6.3126zm22.959 0v31.685l1.5894-0.0074c1.1388 1.23e-4 2.2774 0.0022 3.415 0.0062v-13.392h9.4269l-0.046-5.5335h-9.4269l0.046-6.4458h11.987v-6.3126zm42.115 0v32.57c1.7151 0.08275 3.3846 0.1707 5.0043 0.26364v-32.833zm8.0478 0 7.6754 17.843-6.6303 15.243c2.0293 0.13376 3.9611 0.27565 5.7868 0.42503l3.887-9.1006 4.2145 9.8989c2.53 0.30054 4.6756 0.61836 6.4082 0.94924l-7.5626-17.135 7.7095-18.123h-5.799l-4.8696 11.989-4.9701-11.989zm-28.911 0.30553v31.57c6.0954 0.12428 11.958 0.30578 17.448 0.54022v-4.9428l-12.443-0.68178v-26.486z" fill="#e50914" stroke-width="207.46" style="paint-order:fill markers stroke"/>
</g>
</g>
</svg>