<?xml version="1.0" encoding="UTF-8"?>
<svg width="48" height="48" version="1.1" viewBox="0 0 12.7 12.7" xmlns="http://www.w3.org/2000/svg">
<path d="m6.1965 0.6492c-0.31764 0-0.57361 0.25043-0.57361 0.56119v0.5516c0 0.072835 0.014669 0.14285 0.040272 0.20659a4.4685 3.5011 0 0 0-3.7812 3.4374v3.8463h-1.0732v1.1277h0.006538a5.5414 0.18958 0 0 1 5.5521-0.18529 5.5414 0.18958 0 0 1 5.5217 0.18529h0.0022v-1.1277h-1.0721v-3.8463h-0.0022a4.4685 3.5011 0 0 0-3.7801-3.4363c0.025829-0.063985 0.040272-0.13447 0.040272-0.20765v-0.5516c0-0.31076-0.25597-0.56119-0.57361-0.56119zm0.16327 2.3438a3.31 2.4707 0 0 1 3.298 2.4215v3.8378h-6.6144v-3.8431a3.31 2.4707 0 0 1 3.3165-2.4162zm2.1714 7.387-4.3059 0.01066a2.1529 1.671 0 0 0 2.1595 1.6601 2.1529 1.671 0 0 0 2.1464-1.6708z" fill="#fff" stroke-width="392.87" style="paint-order:fill markers stroke"/>
</svg>
