<?xml version="1.0" encoding="UTF-8"?>
<svg width="48" height="48" version="1.1" viewBox="0 0 12.7 12.7" xmlns="http://www.w3.org/2000/svg">
<path d="m6.043 1.8593c-0.19754 0-0.35657 0.22355-0.35657 0.50126v3.3259h-3.3259c-0.27772 0-0.50126 0.15903-0.50126 0.35657v0.61392c0 0.19754 0.22355 0.35657 0.50126 0.35657h3.3259v3.3259c0 0.27772 0.15903 0.50126 0.35657 0.50126h0.61392c0.19754 0 0.35657-0.22355 0.35657-0.50126v-3.3259h3.3259c0.27772 0 0.50126-0.15903 0.50126-0.35657v-0.61392c0-0.19754-0.22355-0.35657-0.50126-0.35657h-3.3259v-3.3259c0-0.27772-0.15903-0.50126-0.35657-0.50126h-0.61392z" fill="#fff" stroke-width="148.53" style="paint-order:fill markers stroke"/>
</svg>
