<?xml version="1.0" encoding="UTF-8"?>
<svg width="48" height="48" version="1.1" viewBox="0 0 12.7 12.7" xmlns="http://www.w3.org/2000/svg">
<path d="m6.35 0.5178a5 5 0 0 0-5.0002 5.0002 5 5 0 0 0 5.0002 4.9997 5 5 0 0 0 2.6939-0.78858c0.01305 0.023793 0.028495 0.047122 0.047542 0.06873l2.4448 2.773c0.14052 0.15942 0.39044 0.18557 0.56069 0.058394l0.26768-0.19999c0.17025-0.12718 0.19427-0.35787 0.053743-0.51728l-2.4448-2.773c-0.03082-0.034963-0.067083-0.06335-0.10645-0.085266a5 5 0 0 0 1.4831-3.5357 5 5 0 0 0-5.0002-5.0002zm0 0.99994a4 4 0 0 1 3.9998 4.0003 4 4 0 0 1-3.9998 3.9998 4 4 0 0 1-3.9998-3.9998 4 4 0 0 1 3.9998-4.0003z" fill="#fff" stroke-width="520.66" style="paint-order:fill markers stroke"/>
</svg>