<?xml version="1.0" encoding="UTF-8"?>
<svg width="48" height="48" version="1.1" viewBox="0 0 12.7 12.7" xmlns="http://www.w3.org/2000/svg">
<path d="m6.35 1.2195a2.3445 2.3252 0 0 0-2.3443 2.3257 2.3445 2.3252 0 0 0 2.3443 2.3251 2.3445 2.3252 0 0 0 2.3443-2.3251 2.3445 2.3252 0 0 0-2.3443-2.3257zm0 0.87235a1.4653 1.4532 0 0 1 1.4654 1.4533 1.4653 1.4532 0 0 1-1.4654 1.4533 1.4653 1.4532 0 0 1-1.4654-1.4533 1.4653 1.4532 0 0 1 1.4654-1.4533zm-0.012721 4.0463a5.7514 5.7748 0 0 0-2.878 0.78223 5.7514 5.7748 0 0 0-2.8604 5.0184l11.502-0.025228a5.7514 5.7748 0 0 0-2.8829-5.0058 5.7514 5.7748 0 0 0-2.881-0.76961zm0.00243 0.87175a4.6091 4.0396 0 0 1 2.3092 0.53831 4.6091 4.0396 0 0 1 2.3104 3.5014l-9.2186 0.01802a4.6091 4.0396 0 0 1 2.2928-3.5104 4.6091 4.0396 0 0 1 2.3062-0.54732z" fill="#fff" stroke-width="334.61" style="paint-order:fill markers stroke"/>
</svg>
